<svg width="154" height="87" viewBox="0 0 154 87" fill="none" xmlns="http://www.w3.org/2000/svg">
<path d="M26.5479 53.2814C25.6713 54.6807 26.9271 58.6905 28.7001 60.168C30.0602 61.273 31.0665 60.7663 31.3315 58.8263C31.6359 56.7816 30.1377 53.8789 28.4323 53.1494C27.1328 52.5792 26.9764 52.6079 26.5479 53.2814Z" fill="black"/>
<path d="M14.8404 54.2121C13.9637 55.6113 15.2196 59.6211 16.9926 61.0987C18.3527 62.2037 19.359 61.6969 19.624 59.7569C19.9284 57.7122 18.4302 54.8096 16.7248 54.0801C15.4253 53.5098 15.2688 53.5386 14.8404 54.2121Z" fill="black"/>
<path d="M9.88193 65.5858C10.2414 67.8009 14.3541 71.8801 18.0101 73.6158C19.1376 74.1786 21.0826 74.5814 22.8021 74.6552C25.5025 74.7534 25.8859 74.6634 29.3741 73.0569C32.7215 71.5153 33.2387 71.1472 34.844 69.2825C36.889 66.869 38.8424 61.6841 38.2223 60.2384C37.6796 58.9733 36.8918 59.5959 35.3133 62.7035C33.5656 66.1054 32.5918 67.3764 30.558 68.8324C28.6144 70.2037 24.9796 71.2717 22.6935 71.1559C19.9776 71.0216 14.8713 68.2657 12.0947 65.4324C10.6811 64.0058 9.64514 64.05 9.88193 65.5858Z" fill="black"/>
<g filter="url(#filter0_d_1_977)">
<path d="M55.8794 67.3316L52.7129 46.5822L58.8341 43.9328L71.7946 60.4431L68.1751 62.0097L65.3898 58.3489L58.7363 61.2287L59.499 65.765L55.8794 67.3316ZM58.156 57.6247L63.1594 55.459L56.9692 47.3628L56.4901 47.5702L58.156 57.6247ZM78.3909 58.0304C77.4505 58.4374 76.5386 58.6425 75.6552 58.6457C74.7641 58.6311 73.9624 58.4093 73.25 57.9803C72.5477 57.5259 72.0008 56.8463 71.6091 55.9414C71.2174 55.0365 71.104 54.1903 71.2687 53.4027C71.4435 52.5897 71.8471 51.8673 72.4794 51.2355C73.1219 50.5782 73.9399 50.0346 74.9335 49.6045L78.553 48.0379L78.2305 47.2927C77.9617 46.6717 77.5477 46.2505 76.9884 46.0291C76.4214 45.79 75.7121 45.8547 74.8604 46.2233C74.0265 46.5843 73.49 47.0482 73.2509 47.6152C73.0041 48.1644 72.9491 48.7675 73.086 49.4245L69.5495 49.7228C69.4706 48.9565 69.5428 48.1984 69.766 47.4487C69.9994 46.6736 70.4334 45.9486 71.0682 45.2736C71.713 44.5731 72.6032 43.9772 73.7387 43.4857C75.4775 42.7331 77.0407 42.5726 78.4283 43.0043C79.8159 43.4359 80.8669 44.4768 81.5811 46.1269L83.7121 51.0505C83.9425 51.5827 84.3061 51.7414 84.8029 51.5263L85.8675 51.0656L87.0655 53.8334L84.8299 54.801C84.1734 55.0852 83.5631 55.1597 82.9991 55.0247C82.435 54.8896 82.0378 54.5559 81.8074 54.0237L81.7959 53.997L81.2902 54.2159C81.3114 54.4595 81.2746 54.8125 81.1798 55.2749C81.0773 55.7195 80.8175 56.1901 80.4004 56.6866C79.9834 57.1832 79.3135 57.6311 78.3909 58.0304ZM77.8014 55.0624C78.7418 54.6554 79.3934 54.0679 79.7562 53.2999C80.129 52.5065 80.1273 51.6751 79.751 50.8057L79.6358 50.5396L76.2558 52.0025C75.6348 52.2713 75.2045 52.6156 74.9649 53.0353C74.7252 53.455 74.709 53.9044 74.9164 54.3835C75.1237 54.8625 75.479 55.1723 75.9821 55.3126C76.4853 55.453 77.0917 55.3695 77.8014 55.0624ZM89.5173 52.7722L83.8037 39.5717L87.1038 38.1433L87.7489 39.6336L88.228 39.4263C88.1928 38.8095 88.3432 38.281 88.6792 37.8406C89.033 37.3925 89.5116 37.0379 90.1148 36.7768L91.7116 36.0857L93.0018 39.0664L91.3517 39.7806C90.5001 40.1493 89.8991 40.6833 89.5487 41.3826C89.1907 42.0643 89.2152 42.8753 89.6222 43.8156L92.8706 51.3208L89.5173 52.7722ZM105.401 46.3396C103.68 47.0845 102.108 47.3224 100.686 47.0534C99.2632 46.7843 98.137 46.0077 97.3074 44.7236L100.049 42.589C100.442 43.1562 100.857 43.5558 101.295 43.7878C101.75 44.0121 102.225 44.112 102.72 44.0873C103.225 44.0373 103.735 43.9009 104.249 43.6782C105.03 43.3403 105.549 42.9576 105.806 42.5302C106.056 42.0851 106.093 41.6585 105.916 41.2504C105.739 40.8423 105.428 40.6086 104.981 40.5493C104.526 40.4722 103.877 40.5317 103.035 40.7276L102.233 40.9171C101.233 41.139 100.287 41.2643 99.3932 41.2928C98.4921 41.3037 97.6918 41.1339 96.9924 40.7836C96.293 40.4332 95.7552 39.8234 95.3789 38.954C94.8106 37.641 94.8558 36.4312 95.5144 35.3245C96.1653 34.2001 97.2715 33.3 98.8328 32.6242C100.305 31.9868 101.672 31.7852 102.932 32.0193C104.192 32.2534 105.203 32.8375 105.965 33.7715L103.266 36.0773C102.832 35.4645 102.332 35.1122 101.766 35.0203C101.217 34.9207 100.623 35.0092 99.9847 35.2856C99.346 35.5621 98.908 35.8886 98.6707 36.2652C98.4258 36.624 98.3878 36.9986 98.5567 37.3889C98.741 37.8148 99.0567 38.0573 99.5037 38.1166C99.943 38.1582 100.487 38.1017 101.137 37.947L101.939 37.7576C103.01 37.505 104.01 37.3567 104.938 37.3127C105.878 37.2433 106.697 37.3838 107.396 37.7342C108.106 38.0591 108.66 38.6829 109.059 39.6055C109.658 40.9894 109.617 42.2817 108.936 43.4824C108.265 44.6576 107.087 45.61 105.401 46.3396ZM113.714 42.2991L105.651 23.6693L109.004 22.2179L112.057 29.2706L112.536 29.0632C112.555 28.7179 112.654 28.338 112.832 27.9236C113.011 27.5092 113.311 27.1057 113.731 26.7133C114.161 26.2954 114.766 25.9175 115.547 25.5796C116.576 25.1342 117.575 24.9859 118.546 25.1347C119.526 25.2581 120.41 25.6446 121.196 26.2942C121.975 26.9261 122.603 27.792 123.079 28.8921L126.489 36.7698L123.136 38.2213L119.841 30.6097C119.411 29.6161 118.84 28.9784 118.128 28.6966C117.434 28.4072 116.635 28.4583 115.73 28.8499C114.701 29.2954 114.052 29.9869 113.784 30.9246C113.508 31.8446 113.635 32.9167 114.165 34.1409L117.068 40.8477L113.714 42.2991ZM130.114 35.2008L124.4 22.0002L127.754 20.5488L133.467 33.7494L130.114 35.2008ZM125.409 19.7309C124.806 19.992 124.207 20.0196 123.612 19.8135C123.035 19.5998 122.608 19.1736 122.332 18.5349C122.055 17.8961 122.037 17.2933 122.276 16.7263C122.533 16.1516 122.963 15.7338 123.566 15.4727C124.187 15.2039 124.786 15.1763 125.363 15.3901C125.94 15.6038 126.367 16.03 126.643 16.6687C126.92 17.3075 126.938 17.9103 126.699 18.4773C126.46 19.0443 126.03 19.4621 125.409 19.7309Z" fill="black"/>
</g>
<defs>
<filter id="filter0_d_1_977" x="47.6548" y="14.5396" width="86.4529" height="57.1647" filterUnits="userSpaceOnUse" color-interpolation-filters="sRGB">
<feFlood flood-opacity="0" result="BackgroundImageFix"/>
<feColorMatrix in="SourceAlpha" type="matrix" values="0 0 0 0 0 0 0 0 0 0 0 0 0 0 0 0 0 0 127 0" result="hardAlpha"/>
<feOffset dy="4"/>
<feComposite in2="hardAlpha" operator="out"/>
<feColorMatrix type="matrix" values="0 0 0 0 0.906944 0 0 0 0 0.906944 0 0 0 0 0.906944 0 0 0 0.32 0"/>
<feBlend mode="normal" in2="BackgroundImageFix" result="effect1_dropShadow_1_977"/>
<feBlend mode="normal" in="SourceGraphic" in2="effect1_dropShadow_1_977" result="shape"/>
</filter>
</defs>
</svg>
