<svg width="98" height="74" viewBox="0 0 98 74" fill="none" xmlns="http://www.w3.org/2000/svg">
<path d="M32.1557 6.29163C26.1557 15.4916 27.4891 28.425 34.4224 27.0916C39.7557 26.1583 45.0891 11.0916 42.4224 4.29163C40.5557 -0.908371 36.4224 -0.108372 32.1557 6.29163Z" fill="#0C0C0C"/>
<path d="M69.6231 8.55794C64.9564 11.6246 63.4897 25.7579 67.0897 32.8246C69.8897 38.1579 73.7564 38.0246 77.2231 32.4246C80.9564 26.5579 80.1564 15.4913 75.7564 10.8246C72.4231 7.22461 71.8897 7.09128 69.6231 8.55794Z" fill="#0C0C0C"/>
<path d="M0.288106 22.8245C-1.57856 30.1579 5.88811 48.5579 15.0881 59.0912C17.8881 62.4245 23.4881 66.4245 28.8214 69.0912C37.2214 73.2245 38.5548 73.4912 51.7548 73.4912C64.4214 73.4912 66.5548 73.0912 74.1548 69.6245C83.8881 65.0912 97.0881 51.8912 97.0881 46.5579C97.0881 41.8912 93.7548 42.6912 84.5548 50.0245C74.4214 58.0245 69.6214 60.5579 61.2214 62.1579C53.2214 63.6245 40.2881 61.7579 33.2214 58.1579C24.8214 53.8912 12.4214 38.1579 7.48811 25.4912C4.95477 19.0912 1.62144 17.7579 0.288106 22.8245Z" fill="#0C0C0C"/>
</svg>
