<svg width="185" height="184" viewBox="0 0 185 184" fill="none" xmlns="http://www.w3.org/2000/svg">
<g clip-path="url(#clip0_1_973)">
<g filter="url(#filter0_d_1_973)">
<path d="M104.94 85.7569C115.093 90.948 123.878 98.0697 129.307 107.133C134.559 115.9 136.69 126.515 133.847 139.034L133.557 140.251L133.557 140.252C133.472 140.594 133.124 140.803 132.78 140.718C132.482 140.642 132.284 140.366 132.297 140.068L132.315 139.94C135.496 127.24 133.424 116.475 128.077 107.628C122.905 99.0713 114.688 92.3396 105.27 87.3722L104.355 86.8973C94.4661 81.8417 83.3058 78.6635 72.8544 77.3305C62.7369 76.0402 53.2433 76.4743 46.1918 78.6398L45.5165 78.8544C45.1733 78.9681 44.9819 78.8909 44.87 78.8156C44.8014 78.7693 44.7477 78.712 44.7088 78.6619L44.6358 78.5495L44.6357 78.5482L44.5817 78.4136C44.5655 78.3584 44.5539 78.2943 44.5546 78.2267C44.5558 78.1269 44.5833 77.9878 44.7295 77.8262L44.7998 77.7555C44.7982 77.757 44.8057 77.7508 44.8266 77.7351C44.8464 77.7202 44.8727 77.7001 44.9071 77.6765C44.9764 77.6288 45.0689 77.5686 45.183 77.4964C45.4109 77.352 45.7147 77.1672 46.0748 76.9528C46.7952 76.524 47.7301 75.9834 48.7047 75.4235C50.1621 74.5863 51.7144 73.7037 52.7654 73.0968L53.6271 72.5931C54.2998 72.1925 55.2598 71.6923 56.4076 71.0963C57.5496 70.5034 58.8666 69.8216 60.2331 69.0654C62.7898 67.6507 65.5504 65.9609 67.7027 64.0775L68.1245 63.6985C69.3716 62.5485 70.4332 61.2946 70.943 59.9498C71.4657 58.5707 71.3973 57.1181 70.4307 55.6612L70.4314 55.6618C69.4562 54.1907 67.9636 53.3672 66.1884 52.9924C64.6437 52.6662 62.8638 52.6742 60.9677 52.8923L60.1482 52.9982C54.5052 53.8063 47.8028 56.4305 42.0319 59.3211C36.6292 62.0274 31.9723 65.0031 29.7256 67.0032L29.309 67.3895L29.3083 67.3902C29.0541 67.6377 28.6494 67.6316 28.4039 67.3794L28.3229 67.277C28.1624 67.0264 28.1942 66.6899 28.4167 66.4728C30.4321 64.5124 35.4348 61.2352 41.4132 58.2327C47.1973 55.3277 53.8201 52.7176 59.4273 51.813L59.9664 51.7306C65.1385 50.9902 69.2145 51.8475 71.302 54.6727L71.4981 54.9528C72.6217 56.6473 72.7983 58.2953 72.3185 59.8886C71.8614 61.4063 70.7973 62.9093 69.2982 64.3528L68.9922 64.6405C66.8182 66.6467 63.8698 68.4815 61.0874 70.0335C59.6995 70.8077 58.3606 71.5068 57.1875 72.1207C56.312 72.5789 55.5221 72.993 54.8777 73.3527L54.2837 73.6938C53.8204 73.9687 52.9399 74.4843 51.9138 75.0776L52.237 76.0055C66.6897 73.8782 87.166 76.9055 104.134 85.3514L104.94 85.7569Z" fill="black" stroke="black"/>
<path d="M146.903 106.788C147.219 106.939 147.356 107.322 147.206 107.644L147.205 107.645C143.12 116.188 139.01 124.258 136.249 133.429L136.25 133.429C136.122 133.851 135.819 135.328 135.475 136.889C135.166 138.286 134.82 139.772 134.514 140.778L134.386 141.178L134.385 141.179C134.182 141.777 133.965 142.117 133.864 142.223C133.76 142.33 133.658 142.389 133.564 142.423L133.474 142.449L133.469 142.45C133.392 142.469 133.284 142.483 133.17 142.459C133.093 142.442 132.997 142.405 132.894 142.314L132.788 142.204L132.787 142.201L132.745 142.136C132.718 142.091 132.686 142.031 132.649 141.961C132.575 141.821 132.489 141.649 132.406 141.475C132.25 141.15 132.079 140.775 132.045 140.708L132.045 140.707C130.803 138.145 129.682 135.444 128.286 132.89L128.003 132.381L128.003 132.38C124.713 126.576 120.111 121.198 114.5 117.476L113.954 117.12C113.694 116.954 113.594 116.631 113.701 116.351L113.759 116.235C113.949 115.938 114.345 115.85 114.645 116.041L114.645 116.039C120.461 119.747 125.294 125.197 128.785 131.169L129.118 131.749C130.437 134.074 131.482 136.503 132.633 138.958L133.236 140.244L133.571 138.864C133.976 137.199 134.501 135.064 134.805 133.878L135.024 133.06L135.025 133.058L135.288 132.2C137.335 125.642 140.055 119.624 142.965 113.519L146.051 107.09C146.185 106.81 146.494 106.673 146.782 106.744L146.903 106.788Z" fill="black" stroke="black"/>
</g>
</g>
<defs>
<filter id="filter0_d_1_973" x="26.7224" y="50.9785" width="121.045" height="95.993" filterUnits="userSpaceOnUse" color-interpolation-filters="sRGB">
<feFlood flood-opacity="0" result="BackgroundImageFix"/>
<feColorMatrix in="SourceAlpha" type="matrix" values="0 0 0 0 0 0 0 0 0 0 0 0 0 0 0 0 0 0 127 0" result="hardAlpha"/>
<feOffset dx="-1" dy="4"/>
<feComposite in2="hardAlpha" operator="out"/>
<feColorMatrix type="matrix" values="0 0 0 0 0 0 0 0 0 0 0 0 0 0 0 0 0 0 1 0"/>
<feBlend mode="normal" in2="BackgroundImageFix" result="effect1_dropShadow_1_973"/>
<feBlend mode="normal" in="SourceGraphic" in2="effect1_dropShadow_1_973" result="shape"/>
</filter>
<clipPath id="clip0_1_973">
<rect width="130" height="130" fill="white" transform="translate(88.916) rotate(42.6258)"/>
</clipPath>
</defs>
</svg>
