<svg width="95" height="97" viewBox="0 0 95 97" fill="none" xmlns="http://www.w3.org/2000/svg">
<g filter="url(#filter0_d_1_946)">
<rect x="1" y="1.72998" width="90.0111" height="90.0111" rx="45.0056" fill="#FFDC58" stroke="black" stroke-width="2"/>
<path fill-rule="evenodd" clip-rule="evenodd" d="M44.7978 74.2954C44.7973 74.2864 44.7899 74.2792 44.7809 74.279C43.6103 74.2498 42.4123 74.1355 41.2333 73.8051C40.8025 73.6844 40.3623 73.5657 39.9483 73.3655C39.219 73.0186 38.5414 72.5225 38.008 71.9058C37.7388 71.5931 37.5081 71.2797 37.3017 70.9086C37.0854 70.5374 36.9592 70.1066 36.9088 69.6745C36.8578 69.2897 36.8989 68.8937 36.9934 68.52C37.0959 68.1451 37.2787 67.8038 37.492 67.4917C38.0645 66.7059 39.035 66.2353 39.9408 66.3217C40.2249 66.3397 40.1845 66.4864 40.0024 66.709C39.8078 66.9061 39.5454 67.3077 39.2538 67.5278C38.9735 67.718 38.8112 68.0046 38.6303 68.2216C38.463 68.4585 38.3555 68.7183 38.3076 68.9826C38.2361 69.2424 38.2231 69.5216 38.2784 69.8119C38.3356 70.101 38.4792 70.3888 38.6744 70.7289C38.9119 71.1063 39.2389 71.4345 39.6163 71.7025C40.0005 71.9636 40.4295 72.1663 40.8715 72.3434C41.8488 72.7308 42.948 72.8999 44.0583 72.9701C44.744 73.0093 45.4403 73.0192 46.1255 72.9801C47.1656 72.9191 48.2144 72.7898 49.1997 72.4846C49.9719 72.2688 50.6868 71.9393 51.3688 71.5638C51.5205 71.4824 51.6617 71.3916 51.8096 71.304C52.3592 70.9782 52.5656 70.9191 52.8155 71.0087C52.8715 71.0286 52.9355 71.0397 52.9803 71.0652C53.1214 71.1349 53.017 71.4513 52.6371 71.8119C52.0707 72.3379 51.4093 72.8041 50.6893 73.1784C50.3287 73.3624 49.9582 73.5415 49.5728 73.6782C49.1836 73.8007 48.7869 73.9039 48.3872 73.9847C47.207 74.2335 45.9998 74.3135 44.8151 74.3118C44.8059 74.3118 44.7983 74.3046 44.7978 74.2954Z" fill="#231F20"/>
<path fill-rule="evenodd" clip-rule="evenodd" d="M48.006 74.7373C48.0044 74.7328 47.9996 74.7302 47.9949 74.7314C47.3603 74.8994 46.7147 75.0194 46.0672 75.1184C45.8279 75.1508 45.5935 75.1818 45.3535 75.2142C44.508 75.2751 43.6575 75.2564 42.8195 75.1389C42.4464 75.0898 42.0747 75.0239 41.7079 74.9462C41.2428 74.8287 40.7542 74.7094 40.3575 74.4035C40.2313 74.314 40.3314 74.1989 40.5105 74.1281C40.6939 74.0541 40.9301 74.0361 41.1664 74.1113C41.992 74.4209 42.8972 74.5601 43.8254 74.6416C44.3837 74.6839 44.9674 74.6223 45.535 74.5403C46.1629 74.4688 46.7859 74.3394 47.4032 74.1853C47.7837 74.0945 48.1574 73.9695 48.5316 73.8539L49.3746 73.5549C49.65 73.443 49.9236 73.3242 50.1934 73.2017C50.6062 72.9978 50.9898 72.7566 51.3896 72.5421L51.6476 72.391C51.9771 72.2126 52.1076 72.1989 52.2357 72.253C52.2649 72.2661 52.2991 72.2748 52.3215 72.291C52.3955 72.3426 52.3028 72.4855 52.0883 72.6733C51.4561 73.2366 50.6932 73.7003 49.8794 74.0628C49.2846 74.3475 48.6558 74.567 48.017 74.7431C48.0124 74.7444 48.0075 74.7419 48.006 74.7373Z" fill="#231F20"/>
<path fill-rule="evenodd" clip-rule="evenodd" d="M49.2375 78.7324C49.2423 78.7362 49.2491 78.7361 49.2537 78.7321C49.4524 78.5603 49.6227 78.3184 49.7792 78.0651C49.8401 77.9737 49.8625 77.8574 49.9197 77.7604C50.1149 77.4079 50.2871 77.0268 50.458 76.6327C50.5401 76.4611 50.5998 76.2777 50.6669 76.0949C50.7577 75.863 50.8161 75.5994 51.0773 75.4098C51.1519 75.3514 51.2377 75.4682 51.316 75.61C51.3906 75.7598 51.4814 75.8842 51.4577 76.0048C51.3446 76.3939 51.2955 76.8988 51.0151 77.3358C50.8634 77.6019 50.8012 77.9183 50.6657 78.2093C50.5221 78.5301 50.3294 78.8391 50.1136 79.1325C49.9582 79.3016 49.8221 79.4813 49.6331 79.6218C49.4978 79.7318 49.3526 79.8289 49.1992 79.9117L49.196 79.9134C49.0468 80.0091 48.8789 80.0576 48.7161 80.1192C48.5911 80.177 48.4661 80.2161 48.3362 80.2522C48.2088 80.2858 48.0745 80.3467 47.9427 80.3573C47.8848 80.3647 47.8277 80.366 47.7686 80.361C47.5504 80.3336 47.4863 80.2677 47.4702 80.0483C47.4658 80.0017 47.459 79.9563 47.459 79.914C47.4596 79.781 47.5585 79.6137 47.6853 79.5534C48.0738 79.3607 48.3629 79.2973 48.6458 79.1593C48.8319 79.0368 49.0451 78.9355 49.2196 78.7342C49.2241 78.7289 49.232 78.7281 49.2375 78.7324Z" fill="#231F20"/>
<path fill-rule="evenodd" clip-rule="evenodd" d="M39.4617 67.7764C39.4565 67.769 39.4469 67.7662 39.4385 67.7696C39.2856 67.8327 39.1067 67.903 38.9518 68.0229C38.8946 68.0683 38.8604 68.133 38.8032 68.1796C38.5943 68.3431 38.3885 68.5346 38.2368 68.7609C38.1809 68.8604 38.1461 68.9779 38.1529 69.0804C38.1492 69.2265 38.2014 69.3049 38.0932 69.4174C38.0547 69.4553 37.8147 69.5679 37.5467 69.5965C37.2881 69.64 36.9499 69.5163 36.9232 69.3447C36.8529 69.0376 36.9132 68.769 37.0071 68.5452C37.0979 68.3158 37.2384 68.1274 37.4075 67.9682C37.6139 67.7861 37.7053 67.5355 37.8856 67.3422C38.0857 67.1345 38.3071 66.9486 38.5595 66.7963C38.7074 66.6975 38.8828 66.6303 39.0481 66.5564C39.308 66.4479 39.5923 66.4005 39.8731 66.3793C39.8764 66.379 39.8797 66.3788 39.8831 66.3786C39.9968 66.3767 40.1131 66.3493 40.2318 66.3444C40.3481 66.35 40.4712 66.3562 40.5931 66.3761C40.649 66.3798 40.69 66.4103 40.7348 66.4382C40.8902 66.5613 40.894 66.6689 40.7827 66.8908C40.7572 66.9418 40.7336 66.9922 40.705 67.0394C40.6092 67.1948 40.4656 67.3055 40.3543 67.3652C40.0087 67.5604 39.9906 67.6176 39.8445 67.6518C39.7534 67.6722 39.6224 67.7122 39.4867 67.7825C39.478 67.787 39.4673 67.7844 39.4617 67.7764Z" fill="#231F20"/>
<path fill-rule="evenodd" clip-rule="evenodd" d="M28.7842 57.3221C28.7874 57.3184 28.7874 57.3128 28.7841 57.3091C27.2968 55.5838 25.9566 53.7153 24.8849 51.6911C24.6778 51.3274 24.4982 50.9494 24.3216 50.5696C24.1345 50.1947 23.966 49.8123 23.8224 49.4182C22.7257 46.6765 22.2775 43.683 22.4963 40.7567C22.5317 40.1064 22.6399 39.4605 22.7183 38.8145C22.8575 38.1792 22.9352 37.5301 23.1186 36.9109C23.4848 35.3013 24.1102 33.7011 25.0795 32.3495C25.3841 31.9299 25.4114 32.038 25.2635 32.4539C25.1093 32.8699 24.8507 33.6227 24.5075 34.4769C24.3558 34.8568 24.2215 35.2441 24.1015 35.6345C23.9803 36.0231 23.8982 36.4322 23.7826 36.8263C23.6694 37.223 23.5675 37.6215 23.4997 38.0281C23.4289 38.4334 23.3219 38.8332 23.279 39.2429C23.0192 40.8705 22.9999 42.5317 23.1584 44.1823C23.3468 46.1624 23.9635 48.1698 24.8239 50.015C25.7596 52.0523 26.9582 53.9765 28.3676 55.7415C29.2237 56.8363 30.1494 57.8801 31.123 58.8761C32.5908 60.393 34.1656 61.8229 35.7708 63.1776C37.0198 64.2314 38.2905 65.2068 39.547 66.2314C39.8224 66.4589 40.0996 66.6715 40.3682 66.9134C41.3735 67.7962 41.6452 68.1393 41.7447 68.4458C41.7683 68.5148 41.8081 68.5969 41.8137 68.6442C41.8298 68.8058 41.381 68.4949 40.6306 67.8844C38.3894 66.0896 35.9629 64.2307 33.6564 62.1922C31.9476 60.6784 30.2903 59.0771 28.7842 57.3352C28.7809 57.3314 28.7809 57.3259 28.7842 57.3221Z" fill="#231F20"/>
<path fill-rule="evenodd" clip-rule="evenodd" d="M25.808 31.1695C25.8182 31.174 25.8302 31.1708 25.8368 31.1619C26.8129 29.8608 27.9615 28.7156 29.2143 27.7105C30.5012 26.7419 31.8789 25.9076 33.3343 25.2393C36.255 23.9412 39.4431 23.2337 42.6535 23.3344C43.8248 23.3705 44.9936 23.5054 46.1238 23.7298C46.6933 23.8423 47.2609 23.9779 47.8235 24.1439C48.3862 24.3068 48.9364 24.5449 49.4897 24.7482C51.407 25.5862 53.1129 26.8768 54.4732 28.4354C55.8397 29.9934 56.8698 31.8075 57.5761 33.7168C59.011 37.5389 59.2864 41.6881 58.7517 45.6521C58.5379 47.4183 58.1624 49.1609 57.6986 50.87C57.2503 52.5859 56.6616 54.2533 56.0362 55.8902C55.2298 57.994 54.2625 60.0369 53.1838 62.0145C52.1139 63.9971 50.8978 65.8964 49.578 67.7086C48.7505 68.837 48.7095 68.5747 49.177 67.473C49.4163 66.9265 49.7545 66.1532 50.1866 65.2411C50.6031 64.3198 51.1192 63.2635 51.7085 62.1376C52.7592 60.1426 53.6588 58.0792 54.5198 56.0102C55.3629 53.9325 56.0828 51.8075 56.6261 49.6415C57.7228 45.3207 58.0616 40.7799 57.0172 36.4472C56.6989 35.1597 56.2519 33.8908 55.6625 32.6847C55.0707 31.4793 54.3041 30.359 53.4095 29.3611C52.5118 28.3671 51.4754 27.4892 50.3047 26.8402C49.1359 26.1899 47.8944 25.6919 46.5714 25.3854C40.7834 23.9368 34.3315 25.4432 29.6955 29.2492C28.2786 30.4218 27.0471 31.8243 26.1431 33.4177C25.9404 33.8274 25.7228 34.2315 25.5295 34.6449L25.0539 35.9306C24.8164 36.8259 24.569 37.7223 24.4484 38.6425L24.362 39.1616L24.3184 39.6863L24.2351 40.7363L24.242 41.7901L24.2476 42.3167L24.2967 42.842C24.3806 44.2483 24.7051 45.6303 25.1043 46.9813C25.5121 48.3341 26.1008 49.6266 26.7412 50.8868C27.4114 52.1333 28.1711 53.33 28.9973 54.4771C31.5948 58.0382 34.7928 60.9968 38.0716 63.8933C38.7965 64.5318 39.5189 65.1417 40.2407 65.8056C42.9221 68.2396 43.6507 69.3083 43.7906 70.1737C43.8211 70.3714 43.854 70.6194 43.8378 70.732C43.8217 70.8296 43.7608 70.8202 43.6563 70.7326C43.5469 70.6443 43.4331 70.4733 43.2006 70.2533C42.7735 69.8069 42.0635 69.1118 41.0806 68.2495C38.135 65.7211 34.9656 63.1497 32.0666 60.1749C29.1733 57.2107 26.4652 53.8392 24.6852 49.8778C24.0219 48.413 23.5251 46.8632 23.1807 45.276C22.8295 43.6863 22.7399 42.0419 22.7903 40.4137C22.8506 38.7792 23.1751 37.174 23.5985 35.608C24.0896 34.0227 24.836 32.5263 25.7787 31.1777C25.7853 31.1683 25.7975 31.1649 25.808 31.1695Z" fill="#231F20"/>
<path fill-rule="evenodd" clip-rule="evenodd" d="M41.9002 73.2641C41.8994 73.2733 41.9057 73.2817 41.9149 73.2834C43.4949 73.5704 45.1744 73.522 46.8213 73.2537C47.42 73.1486 48.0268 72.982 48.6074 72.8546C49.5841 72.6015 50.5794 72.1365 51.4877 71.5975C52.3942 71.0498 53.2397 70.379 53.8291 69.5639C54.3258 68.8291 54.442 67.9481 54.0013 67.2263C53.7271 66.7682 53.267 66.3902 52.7709 66.0799C52.2642 65.7815 51.724 65.5098 51.1495 65.3053C50.7927 65.1853 50.8462 65.0684 51.2136 64.964C51.5679 64.8832 52.2972 64.7694 53.0401 65.1008C53.6885 65.3905 54.327 65.7834 54.8443 66.415C54.9758 66.5666 55.0815 66.7403 55.173 66.9245C55.3673 67.316 55.4909 67.7425 55.5257 68.1782C55.5313 68.3945 55.494 68.6084 55.4716 68.8229C55.3074 69.6634 54.8704 70.3305 54.3967 70.8832C53.9192 71.4433 53.3572 71.8654 52.779 72.2465C52.0852 72.6967 51.3659 73.1026 50.613 73.4644C50.2363 73.6447 49.8496 73.8107 49.4486 73.9543C49.2503 74.0296 49.0351 74.0843 48.83 74.1483L48.2313 74.2789C46.4856 74.6674 44.6758 74.8707 42.8661 74.7184C41.7538 74.6208 40.6472 74.3877 39.5934 73.9798C38.7977 73.6621 38.0473 73.212 37.387 72.6413C36.7361 72.0607 36.204 71.3115 35.941 70.4424C35.7507 69.7691 35.7221 69.0119 35.9515 68.3243C36.1878 67.6392 36.6298 67.0492 37.157 66.5966C37.3895 66.3958 37.6251 66.2117 37.8894 66.0576C38.3768 65.7697 38.743 65.6845 39.0003 65.6522C39.2627 65.6317 39.4318 65.6914 39.5835 65.8163C39.6525 65.8717 39.7346 65.9208 39.7793 65.9792C39.9298 66.1813 39.5798 66.4722 39.0035 66.8359C38.1449 67.3644 37.4231 68.0961 37.226 68.8769C37.1067 69.2661 37.1284 69.6503 37.2198 70.0563C37.3305 70.4623 37.5686 70.8583 37.8595 71.2276C38.782 72.3174 40.3102 72.9731 41.8854 73.2447C41.8947 73.2463 41.9011 73.2547 41.9002 73.2641Z" fill="#231F20"/>
<path fill-rule="evenodd" clip-rule="evenodd" d="M40.2435 70.324C40.2408 70.332 40.2446 70.3407 40.2524 70.344C41.1279 70.7088 42.1008 70.9475 43.0959 71.0644C43.4615 71.1091 43.8314 71.1029 44.2 71.1172C45.5019 71.1744 46.8329 71.078 48.108 70.7529C48.6719 70.6074 49.2265 70.4078 49.7344 70.1467C50.3878 69.8048 50.9566 69.3634 51.4615 68.8729C51.6219 68.7206 51.7412 68.8076 51.7636 69.0774C51.7997 69.3516 51.6865 69.8284 51.3147 70.1666C49.9955 71.3149 48.3629 71.8502 46.7378 72.0093C45.7642 72.102 44.7602 72.2512 43.7586 72.2226C42.6613 72.1896 41.5578 72.0466 40.4954 71.7041C39.8432 71.4939 39.2053 71.2129 38.6166 70.8337C38.1733 70.5434 37.7593 70.1909 37.4186 69.7669C37.2594 69.5462 37.0996 69.3261 36.9809 69.0793C36.8448 68.858 36.7453 68.5055 36.7515 68.2058C36.7583 67.719 36.9442 67.2869 37.1823 66.9263C37.4242 66.5645 37.7276 66.2586 38.0776 66.01C38.2293 65.8968 38.3872 65.7967 38.5613 65.7115C39.2252 65.4162 39.5286 65.5306 39.6778 65.793C39.7133 65.8539 39.7549 65.9124 39.7723 65.972C39.8189 66.1741 39.6038 66.3587 39.2843 66.5347C38.7969 66.7914 38.3381 67.2117 38.0888 67.6469C37.9638 67.862 37.9091 68.0721 37.9215 68.2108C37.9234 68.2829 37.9452 68.3382 37.9731 68.3967C38.0067 68.4688 38.1 68.6186 38.1565 68.728C38.5913 69.407 39.3526 69.9494 40.2344 70.3039C40.2423 70.3071 40.2463 70.316 40.2435 70.324Z" fill="#231F20"/>
<path fill-rule="evenodd" clip-rule="evenodd" d="M43.8178 76.0123C43.8166 76.0217 43.8227 76.0304 43.8319 76.0326C44.6474 76.2219 45.5337 76.2502 46.4175 76.1705C46.7439 76.1481 47.0609 76.0574 47.3855 76.0039C48.5337 75.8168 49.6683 75.4593 50.7538 74.9837C51.23 74.7624 51.6857 74.4907 52.0986 74.1817C52.6438 73.7919 53.0777 73.3089 53.526 72.86C53.677 72.7245 53.8119 72.8078 53.876 73.0658C53.9058 73.1932 53.9313 73.3797 53.8934 73.5737C53.8486 73.7534 53.7622 73.9517 53.6242 74.1295C52.5891 75.2834 51.3009 76.1102 49.8741 76.546C49.0193 76.791 48.1682 77.1472 47.2667 77.3033C46.2826 77.4817 45.2692 77.5445 44.2577 77.4431C43.6373 77.3772 43.0125 77.2299 42.4274 77.0216C41.5403 76.6959 40.7022 76.196 40.0072 75.5445C39.4644 75.0459 38.9652 74.4851 38.6065 73.8267C38.5331 73.68 38.461 73.5358 38.3995 73.3822C38.2198 72.796 38.3224 72.5715 38.5686 72.39C38.6251 72.3483 38.6761 72.2998 38.7302 72.2725C38.9037 72.1811 39.1673 72.3558 39.396 72.6747C39.7324 73.1503 40.0252 73.5986 40.3591 74.0095C40.6941 74.4192 41.0889 74.7723 41.5365 75.0714C42.1897 75.5097 42.9992 75.8309 43.8032 75.9919C43.8127 75.9938 43.8191 76.0027 43.8178 76.0123Z" fill="#231F20"/>
<path fill-rule="evenodd" clip-rule="evenodd" d="M40.3784 37.8735C40.3868 37.8709 40.3922 37.863 40.3916 37.8543C40.3702 37.5475 40.3687 37.2329 40.3858 36.9111L40.4225 36.4069L40.4828 36.0432C40.5176 35.912 40.5649 35.7852 40.6053 35.6559C40.7781 35.1362 41.1822 34.798 41.6609 34.6991C42.1446 34.6034 42.6488 34.7694 43.0368 35.1225C43.1306 35.2139 43.2289 35.3077 43.3066 35.4116C43.393 35.516 43.4751 35.6174 43.5105 35.6851C43.6093 35.8393 43.6877 35.991 43.7623 36.1427C43.9102 36.4448 44.024 36.7432 44.126 37.0404C44.3181 37.6397 44.4791 38.2614 44.5518 38.8781C44.8583 41.3457 44.4872 43.8337 43.4073 46.0687C43.209 46.4759 42.9771 46.8701 42.7209 47.2518C42.591 47.4439 42.4169 47.6379 42.264 47.8281C42.0818 48.0028 41.8966 48.1812 41.6883 48.3317C40.8372 48.9484 39.697 49.1107 38.7626 48.8893C37.9227 48.7171 37.1779 48.3609 36.5021 47.9356C35.8251 47.5054 35.2164 47.005 34.6656 46.4231C34.1061 45.8225 33.6715 45.1635 33.306 44.4635C32.9448 43.7628 32.6476 43.0224 32.4984 42.221C32.3517 41.4302 32.3249 40.5418 32.7122 39.7193C32.8956 39.3196 33.148 38.9615 33.5148 38.6593C33.8742 38.3565 34.3765 38.1812 34.8534 38.1961C35.8207 38.2285 36.5494 38.811 37.0989 39.3426C37.6665 39.8952 38.1359 40.5219 38.5462 41.1728C39.9967 43.4942 40.8074 46.0979 41.577 48.5978C42.08 50.2123 42.5214 51.8704 42.8024 53.5639C42.9342 54.4119 43.0355 55.2673 43.0616 56.1265C43.0877 56.9863 43.0436 57.8449 42.9628 58.6954C42.8335 59.756 42.6768 59.5862 42.512 58.6941C42.4213 58.2179 42.3019 57.5999 42.1645 56.8825C42.0004 56.142 41.8356 55.2891 41.6783 54.3603C41.3973 52.7128 40.928 51.1001 40.425 49.4762C39.9351 47.8337 39.4458 46.2017 38.8515 44.6475C38.2559 43.0976 37.5316 41.5776 36.4878 40.3988C36.2304 40.106 35.9395 39.8275 35.6665 39.6397C35.383 39.4526 35.0803 39.337 34.8235 39.3376C34.5661 39.3307 34.3417 39.4228 34.1241 39.6329C33.9065 39.8443 33.7219 40.1607 33.6286 40.4672C33.3868 41.2437 33.5733 42.2403 33.9401 43.138C34.305 44.0432 34.8509 44.9266 35.5155 45.6217C36.2105 46.3255 37.0467 46.931 37.9326 47.3326C38.8142 47.7143 39.7878 47.8959 40.5493 47.5396C40.9702 47.3568 41.3321 47.0348 41.6311 46.6307C41.9351 46.1912 42.2037 45.7125 42.4262 45.2101C42.859 44.1993 43.1474 43.1088 43.2699 42.0009C43.4036 40.8931 43.3756 39.7659 43.1797 38.6823C43.0691 38.1458 42.923 37.6167 42.716 37.1107C42.6134 36.8614 42.4971 36.6226 42.3659 36.4175C42.2571 36.2465 42.2018 36.1812 42.0744 36.1085C41.9239 36.0233 41.7349 36.1135 41.6752 36.2695C41.6423 36.3429 41.6143 36.4262 41.6025 36.5014C41.5751 36.6257 41.5447 36.8067 41.5391 36.9652C41.5068 37.6279 41.582 38.3248 41.7113 39.0037C41.8425 39.6832 42.0302 40.3572 42.2926 40.9888C42.5487 41.6043 42.8975 42.2496 43.3433 42.558C43.7119 42.7836 44.167 42.8943 44.6041 42.8116C45.0467 42.737 45.4813 42.4995 45.8624 42.1868C46.6202 41.5546 47.2276 40.6512 47.5186 39.7125C47.6622 39.268 47.6665 38.7569 47.6025 38.2726C47.5329 37.7958 47.3588 37.3214 47.0734 37.0783C46.7781 36.8334 46.4834 36.8365 46.172 37.1306C45.8586 37.4308 45.6031 37.8847 45.4104 38.3485C45.2512 38.7109 45.1586 39.0802 45.0672 39.488C44.9646 39.8828 44.8963 40.2857 44.8304 40.6879C44.7116 41.4936 44.6401 42.3049 44.6227 43.1169C44.586 44.7408 44.7091 46.3634 44.9907 47.963C45.1151 48.668 45.2699 49.3506 45.4458 50.0482C45.7666 51.3438 46.0433 52.1762 46.1925 52.7787C46.3492 53.3786 46.374 53.7529 46.3286 54.0886C46.3075 54.2415 46.305 54.4349 46.2665 54.5374C46.167 54.8781 45.3973 53.9779 44.7073 52.037C43.7082 49.1647 43.2083 46.0208 43.3451 42.8185C43.388 42.019 43.4632 41.2151 43.5975 40.4144C43.6728 40.0159 43.7175 39.6105 43.8139 39.212L43.9457 38.6046C44.0041 38.3752 44.0725 38.1688 44.1483 37.958C44.3044 37.5409 44.489 37.1306 44.7601 36.7159C45.0312 36.3205 45.393 35.8337 46.1807 35.572C46.5562 35.4868 46.974 35.4787 47.3277 35.6509C47.7013 35.7734 47.9674 36.0022 48.1844 36.2428C48.6146 36.7364 48.7756 37.2543 48.8869 37.7367C49.0243 38.4647 49.0417 39.1318 48.8571 39.9021C48.6631 40.6034 48.3554 41.2002 47.9824 41.7566C47.6056 42.3087 47.1574 42.8154 46.6022 43.2443C46.0501 43.6652 45.3613 44.0258 44.5469 44.0905C44.3485 44.1197 44.1384 44.0842 43.9364 44.0749C43.7343 44.0494 43.5385 43.9854 43.342 43.9344C43.158 43.8598 42.9808 43.7715 42.8036 43.6845C42.6053 43.5682 42.4337 43.4271 42.2901 43.2866C41.743 42.7153 41.462 42.1203 41.2115 41.5284C40.7433 40.3432 40.4633 39.15 40.3652 37.8928C40.3646 37.8841 40.37 37.876 40.3784 37.8735Z" fill="#231F20"/>
<path fill-rule="evenodd" clip-rule="evenodd" d="M65.0222 39.3708C65.0079 39.4796 64.8643 39.4318 64.6411 39.3C64.5697 39.2583 64.4012 39.0848 64.3956 39.0419C64.3844 38.9586 64.3751 38.876 64.38 38.8051C64.38 38.7622 64.6623 38.3115 64.7624 38.1529C64.8556 37.9981 64.9781 37.8732 65.1111 37.7613C65.3754 37.5263 65.6582 37.308 65.9573 37.1091C66.0238 37.0656 66.0984 37.0345 66.178 37.014C66.4553 36.9487 66.694 36.8262 66.9302 36.6832C66.97 36.6602 67.016 36.6484 67.0384 36.5887C67.0676 36.4806 67.7782 36.1989 67.8864 36.212C68.1457 36.2226 68.3931 36.2095 68.6449 36.2412C68.6803 36.2456 68.7133 36.2201 68.7537 36.2698C68.8463 36.3842 68.9134 36.3531 68.9874 36.3531C69.0888 36.3506 69.192 36.3624 69.2952 36.396C69.3461 36.4122 69.4002 36.4787 69.4512 36.5309C69.4972 36.5775 69.4854 36.7641 69.473 36.7852C69.4357 36.8467 69.4755 36.9307 69.4842 37.0071C69.4906 37.0602 69.4762 37.1102 69.4383 37.148C69.3987 37.1874 69.3409 37.2406 69.2799 37.2947C69.1034 37.4513 68.8677 37.5789 68.648 37.6649C68.4751 37.7333 68.3005 37.8153 68.2675 37.8408C68.1949 37.8901 68.0976 37.8576 68.0212 37.9007C67.9864 37.9202 67.9469 37.9432 67.9064 37.967C67.7131 38.0808 67.5177 38.2723 67.2983 38.2262C67.289 38.2243 67.2795 38.2218 67.2697 38.2188C67.2392 38.2107 67.2212 38.2275 67.2013 38.24C67.0303 38.3469 66.8345 38.4109 66.6449 38.4955C66.5498 38.5409 66.4683 38.608 66.3807 38.6658C66.3645 38.6764 66.3402 38.6745 66.3203 38.6795C66.2955 38.6857 66.2675 38.6876 66.2482 38.7025C66.0456 38.848 65.8062 38.9543 65.6359 39.1464C65.5948 39.1862 65.3026 39.2788 65.261 39.3354C65.2367 39.3646 65.0278 39.3261 65.0222 39.3708Z" fill="#231F20"/>
<path fill-rule="evenodd" clip-rule="evenodd" d="M59.0318 25.5184C59.0168 25.6303 58.8645 25.5793 58.632 25.445C58.558 25.4021 58.3827 25.2243 58.3759 25.1802C58.3628 25.0931 58.3516 25.0067 58.3541 24.9321C58.3541 24.8873 58.6245 24.4049 58.7153 24.2302C58.8011 24.0617 58.918 23.9249 59.0448 23.8006C59.3041 23.5488 59.5807 23.3182 59.8555 23.0968C59.9171 23.0484 59.9879 23.0111 60.0663 22.9887C60.3348 22.9091 60.5499 22.7599 60.7439 22.5852C60.7762 22.556 60.8173 22.5379 60.8216 22.4714C60.8328 22.362 61.3855 21.9523 61.475 21.9318C61.7075 21.8833 61.9164 21.8012 62.1365 21.7316C62.1688 21.7235 62.1844 21.6887 62.2453 21.7223C62.3871 21.8006 62.4275 21.7415 62.4896 21.7117C62.5761 21.6694 62.665 21.6309 62.77 21.6116C62.8222 21.6017 62.9087 21.6365 62.9851 21.6576C63.0548 21.6769 63.1673 21.8516 63.1698 21.8789C63.1766 21.9567 63.2661 22.0114 63.3233 22.076C63.3426 22.0978 63.3681 22.1264 63.3811 22.1456C63.6748 22.5393 62.9444 23.0929 62.5868 23.4295C62.524 23.4886 62.4771 23.534 62.4623 23.5519C62.43 23.5911 62.369 23.5911 62.3168 23.6017C62.2919 23.6091 61.8095 24.0654 61.7877 24.0742C61.6659 24.1345 61.5844 24.2501 61.4054 24.2221C61.37 24.2165 61.3513 24.2364 61.3308 24.2532C61.1542 24.3943 60.9429 24.4814 60.7427 24.5839C60.642 24.6368 60.5605 24.7164 60.4685 24.7804C60.4517 24.7928 60.425 24.7903 60.4045 24.7966C60.3777 24.804 60.3473 24.8059 60.3274 24.8227C60.1272 24.9967 59.863 25.0925 59.6864 25.2945C59.6429 25.3356 59.3289 25.4257 59.2854 25.4842C59.2593 25.514 59.038 25.4723 59.0318 25.5184Z" fill="#231F20"/>
<path fill-rule="evenodd" clip-rule="evenodd" d="M50.9808 78.6474C50.9744 78.6438 50.9663 78.6456 50.9621 78.6516C50.6348 79.1175 50.2463 79.5869 49.7305 79.9528C49.5346 80.0778 49.3512 80.2276 49.1249 80.3059C48.7364 80.467 48.2794 80.508 47.8834 80.4452C47.4818 80.3843 47.1181 80.2475 46.7923 80.0709C46.5026 79.9155 46.2229 79.7557 45.9568 79.5835C45.7883 79.4704 45.6155 79.3616 45.4594 79.2329C45.3096 79.0961 45.1834 78.9332 45.0783 78.7548C45.0143 78.6417 45.1324 78.5497 45.3227 78.4962C45.7501 78.3826 46.1546 78.6307 46.5307 78.8634C46.9484 79.1218 47.3668 79.3389 47.7833 79.4996C48.165 79.637 48.5238 79.5319 48.8732 79.3386C49.2543 79.1322 49.5931 78.7896 49.8853 78.3837C50.0687 78.1368 50.2322 77.8621 50.3889 77.5829C50.6208 77.1539 50.8551 76.7113 51.0578 76.2537C51.212 75.8975 51.3171 75.5158 51.4855 75.1521C51.5235 75.0719 51.5521 74.988 51.5962 74.9102C51.7777 74.6305 51.9238 74.5969 52.1856 74.7045C52.2421 74.7268 52.2975 74.7424 52.3422 74.7648C52.4778 74.8294 52.6065 75.08 52.5542 75.2969C52.4075 75.9479 52.1358 76.5559 51.8107 77.1993C51.575 77.6731 51.3094 78.1566 50.9998 78.6427C50.9957 78.6491 50.9874 78.6512 50.9808 78.6474Z" fill="#231F20"/>
<path fill-rule="evenodd" clip-rule="evenodd" d="M42.5798 18.4702C42.6488 18.5678 42.5139 18.6567 42.2708 18.7382C42.1931 18.7643 41.9562 18.768 41.9195 18.7413C41.8499 18.6891 41.7796 18.6368 41.728 18.5834C41.7001 18.5492 41.5098 18.0245 41.4184 17.8522C41.3357 17.6838 41.2922 17.514 41.2562 17.3437C41.1841 16.998 41.0777 16.6592 41.0174 16.316C41.0019 16.2402 41.0038 16.1619 41.0174 16.0817C41.0678 15.805 41.0205 15.5408 40.9316 15.2846C40.9167 15.2417 40.9155 15.1951 40.8533 15.1634C40.8292 15.1519 40.8016 15.107 40.774 15.0432C40.571 14.5742 40.6699 14.0466 40.7346 13.5395C40.7389 13.5035 40.7122 13.4724 40.7657 13.4276C40.89 13.3226 40.8458 13.2573 40.8546 13.1783C40.8565 13.1507 40.8582 13.123 40.8604 13.0952C40.8734 12.9282 40.9609 12.7854 41.061 12.6511C41.1045 12.5927 41.2307 12.5865 41.2543 12.597C41.3121 12.6306 41.3712 12.5765 41.4246 12.5585C41.4433 12.5523 41.4675 12.5442 41.485 12.5423C41.5138 12.5369 41.6642 12.6334 41.8163 12.7458C42.0685 12.9323 42.2306 13.2169 42.3566 13.5041C42.4536 13.7248 42.5592 13.9561 42.5866 14.0021C42.6445 14.0962 42.6068 14.2194 42.6421 14.3241C42.7134 14.5358 42.8314 14.8865 42.8309 14.9085C42.8378 15.059 42.913 15.2001 42.8054 15.3698C42.7849 15.4034 42.7961 15.432 42.803 15.4618C42.8577 15.7142 42.839 15.9791 42.8347 16.2389C42.8322 16.372 42.862 16.5013 42.8626 16.6337C42.8633 16.6573 42.8452 16.6828 42.8378 16.7077C42.8284 16.7388 42.8129 16.7705 42.8148 16.8003C42.8365 17.1106 42.7768 17.4264 42.8235 17.7323C42.8334 17.8031 42.7016 18.1494 42.7184 18.229C42.7265 18.275 42.5505 18.4317 42.5798 18.4702Z" fill="#231F20"/>
<path fill-rule="evenodd" clip-rule="evenodd" d="M22.4505 19.5612C22.3181 19.5438 22.3858 19.3666 22.5798 19.1074C22.6414 19.0247 22.8782 18.8282 22.9292 18.8195C23.028 18.8015 23.1244 18.7847 23.2027 18.7828C23.2487 18.7866 23.7007 19.0265 23.8729 19.0775C24.0333 19.136 24.1639 19.2242 24.2895 19.3206L25.0883 19.8783C25.148 19.9199 25.1978 19.9753 25.2425 20.0412C25.3917 20.2712 25.6056 20.4173 25.8412 20.5304C25.8804 20.5491 25.9133 20.5808 25.9768 20.5578C26.0768 20.5217 26.6886 20.8854 26.7508 20.9687C26.8987 21.1739 27.0697 21.3467 27.2326 21.5351C27.2562 21.5618 27.2979 21.5631 27.2929 21.6327C27.2811 21.7937 27.3557 21.8099 27.4135 21.8559C27.4931 21.9205 27.5695 21.9927 27.6317 22.0865C27.6628 22.1325 27.6628 22.2289 27.6709 22.311C27.679 22.3856 27.5459 22.5596 27.5204 22.5721C27.4458 22.6075 27.4247 22.7144 27.3818 22.7946C27.3675 22.8214 27.3482 22.8562 27.3339 22.8767C27.301 22.9202 26.6159 22.9532 26.5624 22.9202C26.5562 22.9171 26.3566 22.8363 26.144 22.7486C25.9314 22.6635 25.7076 22.5752 25.6578 22.5621C25.6062 22.5491 25.5795 22.4937 25.5459 22.4496C25.5316 22.4334 24.8701 22.1785 24.8471 22.158C24.7315 22.0691 24.5761 22.0356 24.5232 21.849C24.5133 21.8124 24.4841 21.8018 24.4586 21.7887C24.2335 21.6681 24.0501 21.4841 23.8617 21.3088C23.7641 21.2205 23.6485 21.1546 23.5434 21.075C23.5248 21.0607 23.5179 21.0309 23.5043 21.0098C23.4869 20.9836 23.4757 20.9482 23.452 20.9308C23.2034 20.7399 23.015 20.4801 22.7533 20.2979C22.6892 20.2575 22.5562 19.9 22.4872 19.8534C22.4455 19.8267 22.5021 19.568 22.4505 19.5612Z" fill="#231F20"/>
</g>
<defs>
<filter id="filter0_d_1_946" x="0" y="0.72998" width="94.0112" height="96.0111" filterUnits="userSpaceOnUse" color-interpolation-filters="sRGB">
<feFlood flood-opacity="0" result="BackgroundImageFix"/>
<feColorMatrix in="SourceAlpha" type="matrix" values="0 0 0 0 0 0 0 0 0 0 0 0 0 0 0 0 0 0 127 0" result="hardAlpha"/>
<feOffset dx="2" dy="4"/>
<feComposite in2="hardAlpha" operator="out"/>
<feColorMatrix type="matrix" values="0 0 0 0 0 0 0 0 0 0 0 0 0 0 0 0 0 0 1 0"/>
<feBlend mode="normal" in2="BackgroundImageFix" result="effect1_dropShadow_1_946"/>
<feBlend mode="normal" in="SourceGraphic" in2="effect1_dropShadow_1_946" result="shape"/>
</filter>
</defs>
</svg>
