<svg width="664" height="173" viewBox="0 0 664 173" fill="none" xmlns="http://www.w3.org/2000/svg">
<g filter="url(#filter0_d_1_1119)">
<rect width="112.826" height="117.442" transform="translate(599.217) rotate(55.0113)" fill="#BAE6FF"/>
<g filter="url(#filter1_d_1_1119)">
<path d="M625.612 40.068C623.988 40.5628 624.019 40.5413 610.315 52.6977C604.763 57.591 600.066 61.6114 599.91 61.5837C599.753 61.556 599.378 58.3376 599.123 54.4399C598.601 47.0196 597.867 42.6331 596.994 41.3205C595.961 39.845 594.688 39.7281 592.998 40.9115C591.215 42.1594 590.096 43.7669 584.802 52.6932C580.461 60.0364 579.339 61.5087 578.273 61.2935C576.892 61.0229 574.535 58.9633 562.959 47.9213C556.661 41.933 550.88 36.6825 550.09 36.2736C547.517 34.8226 546.137 36.842 547.129 40.6814C547.424 41.7572 549.437 46.9891 551.598 52.3009C557.604 66.9667 560.628 76.3914 559.552 77.1444C559.306 77.3165 557.231 77.1658 554.892 76.8337C546.485 75.619 540.967 75.1299 539.987 75.4957C539.234 75.7938 538.991 76.1012 538.926 76.925C538.852 77.801 539.024 78.0469 540.202 79.0091C540.964 79.5748 545.455 82.0649 550.173 84.4874C554.891 86.9098 559.065 89.2093 559.459 89.5752C560.648 90.6203 560.415 91.3335 558.533 92.8334C557.593 93.5834 552.724 97.3578 547.701 101.24C535.958 110.375 534.31 112.078 535.537 113.83C536.957 115.859 541.199 115.179 558.071 110.102C565.267 107.951 571.474 106.218 571.839 106.282C572.393 106.353 572.423 106.79 572.015 108.496C570.938 112.913 568.961 124.418 569.09 125.519C569.419 128.082 571.011 128.525 573.071 126.625C573.692 126.008 576.914 122.104 580.274 117.874C583.603 113.667 586.397 110.199 586.502 110.218C586.606 110.236 587.457 112.434 588.37 115.047C590.605 121.315 594.791 131.025 596.727 134.25C598.113 136.623 598.338 136.878 599.287 136.992C601.479 137.244 601.747 136.187 604.041 119.834C604.874 113.892 605.772 108.959 605.999 108.891C606.227 108.823 608.569 109.749 611.157 110.96C617.658 113.967 621.885 115.359 623.637 115.049C625.026 114.809 625.088 114.766 625.272 113.721C625.561 112.236 623.271 108.114 619.592 103.316C618.016 101.259 616.725 99.4148 616.783 99.2366C616.789 99.0491 619.648 99.3382 623.075 99.9162C633.031 101.512 642.056 102.432 644.869 102.066C647.07 101.808 647.964 100.403 646.91 98.8971C646.458 98.2515 639.186 94.2735 628.812 88.9398C624.662 86.8063 621.269 84.9679 621.244 84.8019C621.219 84.6359 624.426 82.346 628.333 79.7489C636.433 74.3086 637.675 73.0729 636.839 71.5513C636.23 70.4201 635.741 70.4416 626.409 71.5692C618.365 72.5738 615.383 72.8288 615.146 72.4907C615.06 72.3677 615.552 71.1074 616.247 69.6136C616.932 68.172 618.482 64.8892 619.715 62.3318C623.53 54.303 627.105 45.8009 627.637 43.5508C628.058 41.9279 628.031 41.1686 627.579 40.5231C627.062 39.7853 626.749 39.73 625.612 40.068ZM624.668 45.7208C623.103 49.7014 618.205 60.5027 615.408 66.1247C613.047 70.7999 612.327 73.0438 612.951 73.9353C613.683 74.9804 617.316 75.0022 624.798 73.979C628.96 73.4474 632.759 72.9866 633.239 73.0173C633.989 73.042 634.001 73.125 633.061 73.8749C632.498 74.3145 628.923 76.8625 625.133 79.5612L618.216 84.4021L618.705 85.2966C619.074 85.9545 622.618 88.008 631.52 92.6778C638.303 96.2192 643.962 99.2658 644.091 99.4502C644.22 99.6347 644.236 99.8529 644.113 99.939C643.529 100.348 629.481 98.7301 622.239 97.4786C617.85 96.7037 614.112 96.2056 613.866 96.3777C612.821 97.1092 613.181 97.8193 618.344 105.197C621.163 109.224 623.385 112.661 623.296 112.86C622.951 113.743 618.304 112.141 611.105 108.661C606.789 106.552 605.274 106.284 604.22 107.526C603.752 108.036 602.907 112.521 601.621 121.023C600.604 128.01 599.632 133.82 599.478 133.927C598.771 134.422 596.635 129.734 592.089 117.94C587.71 106.578 587.645 106.486 585.616 107.906C585.063 108.293 582.924 110.799 580.892 113.457C575.767 120.204 571.722 124.959 571.463 124.59C571.141 124.129 572.011 118.894 573.517 112.344C575.092 105.563 575.122 104.626 574.059 104.088C572.869 103.501 570.881 103.931 560.026 107.268C545.244 111.798 538.463 113.43 537.839 112.539C537.43 111.955 539.994 109.794 552.557 100.13C558.072 95.9042 561.862 92.7475 562.204 92.1881C563.587 89.8459 561.445 87.6356 554.295 84.0296C546.629 80.1438 542.993 78.1548 543.048 77.8412C543.082 77.4969 544.991 77.6723 552.583 78.7701C559.183 79.6926 561.024 79.6405 561.602 78.5032C562.896 75.9027 560.788 68.7682 553.098 49.6021C550.043 42.031 549.072 39.1384 549.472 38.8587C549.81 38.622 549.874 38.7142 561.428 49.7255C572.77 60.5647 574.704 62.28 576.748 63.3683C579.803 64.9853 581.027 63.8542 587.153 53.5663C591.845 45.6114 593.689 42.9464 594.559 42.7497C595.521 42.4885 596.08 45.5778 596.765 55.1284C597.352 63.557 597.65 65.2261 598.471 65.1554C598.658 65.1616 599.476 64.4977 600.291 63.6985C603.113 60.9906 623.927 43.3539 625.252 42.564C625.94 42.1737 625.876 42.5394 624.668 45.7208Z" fill="black"/>
</g>
<g filter="url(#filter2_d_1_1119)">
<path d="M604.296 73.6734C600.018 69.9814 592.631 67.4112 586.806 67.5953C583.874 67.7243 579.509 68.9474 576.588 70.5334C568.35 74.9255 566.877 86.1696 573.538 93.9192C580.315 101.77 593.33 105.119 601.242 101.046C607.59 97.7482 611.405 90.6354 610.357 83.9036C609.992 81.549 609.684 80.8481 607.948 78.1707C606.675 76.2218 605.347 74.5864 604.296 73.6734ZM607.846 84.2416C608.261 86.9282 607.547 90.8166 606.118 93.4201C605.027 95.3289 604.63 95.7438 601.71 97.7878C598.759 99.8533 598.264 100.062 596.014 100.446C593.161 100.886 587.886 100.089 584.262 98.6413C571.552 93.5687 567.452 79.859 576.674 73.4044C580.671 70.6074 587.369 68.9878 591.654 69.7442C593.922 70.1716 599.661 73.0706 601.994 74.9643C604.487 77.0208 607.456 81.721 607.846 84.2416Z" fill="black"/>
</g>
<path d="M596.995 84.9665C596.371 84.533 595.083 85.5719 595.175 86.4234C595.356 87.9911 597.533 88.025 597.809 86.4574C597.929 85.7781 597.723 85.4184 596.995 84.9665Z" fill="black"/>
<path d="M585.613 78.3233C584.515 78.5876 584.066 79.4513 584.555 80.3458C585.099 81.3848 586.479 81.1974 586.787 80.0662C587.026 79.1656 586.316 78.1512 585.613 78.3233Z" fill="black"/>
<path d="M587.622 91.2058C585.691 92.8317 585.218 93.0715 584.259 93.0099C583.3 92.9484 583.088 92.7763 582.86 91.9279C582.651 90.9749 583.023 89.02 583.727 87.4739C583.995 86.8745 583.93 86.7822 583.346 86.733C582.313 86.6315 580.948 89.3272 581.053 91.1777C581.216 94.2239 583.61 95.6165 586.401 94.3042C587.729 93.6495 589.773 91.5317 590.093 90.4835C590.45 89.2264 589.767 89.4292 587.622 91.2058Z" fill="black"/>
</g>
<path d="M6.4 120V64H19.2L34.08 115.76H35.12L50 64H62.8V120H56.32V68.4H55.2L40.4 120H28.8L14 68.4H12.88V120H6.4ZM80.5788 136V130.4H102.979C104.525 130.4 105.299 129.6 105.299 128V113.76H104.179C103.645 114.88 102.819 116 101.699 117.12C100.632 118.187 99.2188 119.067 97.4588 119.76C95.6988 120.4 93.4854 120.72 90.8188 120.72C87.9921 120.72 85.3788 120.107 82.9788 118.88C80.6321 117.653 78.7654 115.84 77.3788 113.44C76.0454 111.04 75.3788 108.107 75.3788 104.64V80.88H81.6988V104.16C81.6988 108 82.6588 110.8 84.5788 112.56C86.5521 114.32 89.1921 115.2 92.4988 115.2C96.2321 115.2 99.2988 113.973 101.699 111.52C104.099 109.067 105.299 105.413 105.299 100.56V80.88H111.619V129.12C111.619 131.253 111.005 132.933 109.779 134.16C108.605 135.387 106.872 136 104.579 136H80.5788ZM145.15 120V64H166.59C169.95 64 172.937 64.6667 175.55 66C178.217 67.28 180.323 69.12 181.87 71.52C183.417 73.92 184.19 76.8267 184.19 80.24V81.28C184.19 84.64 183.39 87.5467 181.79 90C180.243 92.4 178.137 94.24 175.47 95.52C172.803 96.8 169.843 97.44 166.59 97.44H151.87V120H145.15ZM151.87 91.36H165.87C169.443 91.36 172.27 90.48 174.35 88.72C176.43 86.9067 177.47 84.3733 177.47 81.12V80.32C177.47 77.0667 176.43 74.56 174.35 72.8C172.323 70.9867 169.497 70.08 165.87 70.08H151.87V91.36ZM210.267 121.12C206.32 121.12 202.827 120.293 199.787 118.64C196.8 116.987 194.454 114.667 192.747 111.68C191.094 108.64 190.267 105.067 190.267 100.96V99.92C190.267 95.8667 191.094 92.32 192.747 89.28C194.454 86.24 196.8 83.8933 199.787 82.24C202.827 80.5867 206.32 79.76 210.267 79.76C214.214 79.76 217.68 80.5867 220.667 82.24C223.707 83.8933 226.054 86.24 227.707 89.28C229.414 92.32 230.267 95.8667 230.267 99.92V100.96C230.267 105.067 229.414 108.64 227.707 111.68C226.054 114.667 223.707 116.987 220.667 118.64C217.68 120.293 214.214 121.12 210.267 121.12ZM210.267 115.44C214.427 115.44 217.734 114.133 220.187 111.52C222.694 108.853 223.947 105.28 223.947 100.8V100.08C223.947 95.6 222.694 92.0533 220.187 89.44C217.734 86.7733 214.427 85.44 210.267 85.44C206.16 85.44 202.854 86.7733 200.347 89.44C197.84 92.0533 196.587 95.6 196.587 100.08V100.8C196.587 105.28 197.84 108.853 200.347 111.52C202.854 114.133 206.16 115.44 210.267 115.44ZM241.64 120V80.88H247.8V85.68H248.92C249.613 83.9733 250.68 82.72 252.12 81.92C253.56 81.12 255.453 80.72 257.8 80.72H262.44V86.48H257.4C254.573 86.48 252.28 87.28 250.52 88.88C248.813 90.4267 247.96 92.8533 247.96 96.16V120H241.64ZM286.196 120C283.956 120 282.223 119.387 280.996 118.16C279.823 116.933 279.236 115.253 279.236 113.12V86.4H267.476V80.88H279.236V66.96H285.556V80.88H298.356V86.4H285.556V112.16C285.556 113.76 286.33 114.56 287.876 114.56H296.596V120H286.196ZM313.851 120V86.4H301.851V80.88H313.851V70.88C313.851 68.7467 314.438 67.0667 315.611 65.84C316.838 64.6133 318.571 64 320.811 64H330.651V69.44H322.571C320.971 69.44 320.171 70.24 320.171 71.84V80.88H332.491V86.4H320.171V120H313.851ZM357.689 121.12C353.742 121.12 350.249 120.293 347.209 118.64C344.222 116.987 341.875 114.667 340.169 111.68C338.515 108.64 337.689 105.067 337.689 100.96V99.92C337.689 95.8667 338.515 92.32 340.169 89.28C341.875 86.24 344.222 83.8933 347.209 82.24C350.249 80.5867 353.742 79.76 357.689 79.76C361.635 79.76 365.102 80.5867 368.089 82.24C371.129 83.8933 373.475 86.24 375.129 89.28C376.835 92.32 377.689 95.8667 377.689 99.92V100.96C377.689 105.067 376.835 108.64 375.129 111.68C373.475 114.667 371.129 116.987 368.089 118.64C365.102 120.293 361.635 121.12 357.689 121.12ZM357.689 115.44C361.849 115.44 365.155 114.133 367.609 111.52C370.115 108.853 371.369 105.28 371.369 100.8V100.08C371.369 95.6 370.115 92.0533 367.609 89.44C365.155 86.7733 361.849 85.44 357.689 85.44C353.582 85.44 350.275 86.7733 347.769 89.44C345.262 92.0533 344.009 95.6 344.009 100.08V100.8C344.009 105.28 345.262 108.853 347.769 111.52C350.275 114.133 353.582 115.44 357.689 115.44ZM389.062 120V64H395.382V120H389.062ZM408.671 120V80.88H414.991V120H408.671ZM411.871 74.8C410.485 74.8 409.311 74.3467 408.351 73.44C407.445 72.5333 406.991 71.3867 406.991 70C406.991 68.56 407.445 67.3867 408.351 66.48C409.311 65.5733 410.485 65.12 411.871 65.12C413.258 65.12 414.405 65.5733 415.311 66.48C416.218 67.3867 416.671 68.56 416.671 70C416.671 71.3867 416.218 72.5333 415.311 73.44C414.405 74.3467 413.258 74.8 411.871 74.8ZM446.361 121.12C442.414 121.12 438.921 120.293 435.881 118.64C432.894 116.987 430.547 114.667 428.841 111.68C427.187 108.64 426.361 105.067 426.361 100.96V99.92C426.361 95.8667 427.187 92.32 428.841 89.28C430.547 86.24 432.894 83.8933 435.881 82.24C438.921 80.5867 442.414 79.76 446.361 79.76C450.307 79.76 453.774 80.5867 456.761 82.24C459.801 83.8933 462.147 86.24 463.801 89.28C465.507 92.32 466.361 95.8667 466.361 99.92V100.96C466.361 105.067 465.507 108.64 463.801 111.68C462.147 114.667 459.801 116.987 456.761 118.64C453.774 120.293 450.307 121.12 446.361 121.12ZM446.361 115.44C450.521 115.44 453.827 114.133 456.281 111.52C458.787 108.853 460.041 105.28 460.041 100.8V100.08C460.041 95.6 458.787 92.0533 456.281 89.44C453.827 86.7733 450.521 85.44 446.361 85.44C442.254 85.44 438.947 86.7733 436.441 89.44C433.934 92.0533 432.681 95.6 432.681 100.08V100.8C432.681 105.28 433.934 108.853 436.441 111.52C438.947 114.133 442.254 115.44 446.361 115.44Z" fill="black"/>
<path d="M6.4 120H4.9V121.5H6.4V120ZM6.4 64V62.5H4.9V64H6.4ZM19.2 64L20.6416 63.5856L20.3295 62.5H19.2V64ZM34.08 115.76L32.6384 116.174L32.9505 117.26H34.08V115.76ZM35.12 115.76V117.26H36.2495L36.5616 116.174L35.12 115.76ZM50 64V62.5H48.8705L48.5584 63.5856L50 64ZM62.8 64H64.3V62.5H62.8V64ZM62.8 120V121.5H64.3V120H62.8ZM56.32 120H54.82V121.5H56.32V120ZM56.32 68.4H57.82V66.9H56.32V68.4ZM55.2 68.4V66.9H54.0698L53.7581 67.9864L55.2 68.4ZM40.4 120V121.5H41.5302L41.8419 120.414L40.4 120ZM28.8 120L27.3581 120.414L27.6698 121.5H28.8V120ZM14 68.4L15.4419 67.9864L15.1302 66.9H14V68.4ZM12.88 68.4V66.9H11.38V68.4H12.88ZM12.88 120V121.5H14.38V120H12.88ZM7.9 120V64H4.9V120H7.9ZM6.4 65.5H19.2V62.5H6.4V65.5ZM17.7584 64.4144L32.6384 116.174L35.5216 115.346L20.6416 63.5856L17.7584 64.4144ZM34.08 117.26H35.12V114.26H34.08V117.26ZM36.5616 116.174L51.4416 64.4144L48.5584 63.5856L33.6784 115.346L36.5616 116.174ZM50 65.5H62.8V62.5H50V65.5ZM61.3 64V120H64.3V64H61.3ZM62.8 118.5H56.32V121.5H62.8V118.5ZM57.82 120V68.4H54.82V120H57.82ZM56.32 66.9H55.2V69.9H56.32V66.9ZM53.7581 67.9864L38.9581 119.586L41.8419 120.414L56.6419 68.8136L53.7581 67.9864ZM40.4 118.5H28.8V121.5H40.4V118.5ZM30.2419 119.586L15.4419 67.9864L12.5581 68.8136L27.3581 120.414L30.2419 119.586ZM14 66.9H12.88V69.9H14V66.9ZM11.38 68.4V120H14.38V68.4H11.38ZM12.88 118.5H6.4V121.5H12.88V118.5ZM80.5788 136H79.0788V137.5H80.5788V136ZM80.5788 130.4V128.9H79.0788V130.4H80.5788ZM105.299 113.76H106.799V112.26H105.299V113.76ZM104.179 113.76V112.26H103.232L102.824 113.115L104.179 113.76ZM101.699 117.12L102.759 118.181L101.699 117.12ZM97.4587 119.76L97.9714 121.17L97.99 121.163L98.0085 121.156L97.4587 119.76ZM82.9788 118.88L82.2838 120.209L82.2961 120.216L82.9788 118.88ZM77.3788 113.44L76.0675 114.168L76.0736 114.179L76.08 114.19L77.3788 113.44ZM75.3788 80.88V79.38H73.8788V80.88H75.3788ZM81.6988 80.88H83.1988V79.38H81.6988V80.88ZM84.5788 112.56L83.5652 113.666L83.5727 113.673L83.5803 113.679L84.5788 112.56ZM101.699 111.52L100.627 110.471L101.699 111.52ZM105.299 80.88V79.38H103.799V80.88H105.299ZM111.619 80.88H113.119V79.38H111.619V80.88ZM109.779 134.16L108.718 133.099L108.706 133.111L108.695 133.123L109.779 134.16ZM82.0788 136V130.4H79.0788V136H82.0788ZM80.5788 131.9H102.979V128.9H80.5788V131.9ZM102.979 131.9C103.996 131.9 105.032 131.634 105.797 130.843C106.553 130.061 106.799 129.019 106.799 128H103.799C103.799 128.581 103.658 128.739 103.64 128.757C103.632 128.766 103.508 128.9 102.979 128.9V131.9ZM106.799 128V113.76H103.799V128H106.799ZM105.299 112.26H104.179V115.26H105.299V112.26ZM102.824 113.115C102.382 114.045 101.669 115.028 100.638 116.059L102.759 118.181C103.968 116.972 104.909 115.715 105.533 114.405L102.824 113.115ZM100.638 116.059C99.7489 116.949 98.5245 117.728 96.909 118.364L98.0085 121.156C99.913 120.405 101.515 119.425 102.759 118.181L100.638 116.059ZM96.9461 118.35C95.4041 118.911 93.3786 119.22 90.8187 119.22V122.22C93.5922 122.22 95.9934 121.889 97.9714 121.17L96.9461 118.35ZM90.8187 119.22C88.2175 119.22 85.8397 118.658 83.6614 117.544L82.2961 120.216C84.9178 121.556 87.7666 122.22 90.8187 122.22V119.22ZM83.6736 117.551C81.5912 116.462 79.9289 114.855 78.6776 112.69L76.08 114.19C77.602 116.825 79.673 118.845 82.2839 120.209L83.6736 117.551ZM78.69 112.712C77.5089 110.586 76.8788 107.917 76.8788 104.64H73.8788C73.8788 108.296 74.582 111.494 76.0675 114.168L78.69 112.712ZM76.8788 104.64V80.88H73.8788V104.64H76.8788ZM75.3788 82.38H81.6988V79.38H75.3788V82.38ZM80.1988 80.88V104.16H83.1988V80.88H80.1988ZM80.1988 104.16C80.1988 108.219 81.2128 111.509 83.5652 113.666L85.5923 111.454C84.1047 110.091 83.1988 107.781 83.1988 104.16H80.1988ZM83.5803 113.679C85.8924 115.742 88.9196 116.7 92.4987 116.7V113.7C89.4645 113.7 87.2117 112.898 85.5772 111.441L83.5803 113.679ZM92.4987 116.7C96.5964 116.7 100.063 115.338 102.771 112.569L100.627 110.471C98.535 112.609 95.8677 113.7 92.4987 113.7V116.7ZM102.771 112.569C105.542 109.737 106.799 105.642 106.799 100.56H103.799C103.799 105.185 102.656 108.397 100.627 110.471L102.771 112.569ZM106.799 100.56V80.88H103.799V100.56H106.799ZM105.299 82.38H111.619V79.38H105.299V82.38ZM110.119 80.88V129.12H113.119V80.88H110.119ZM110.119 129.12C110.119 130.953 109.602 132.216 108.718 133.099L110.839 135.221C112.409 133.651 113.119 131.554 113.119 129.12H110.119ZM108.695 133.123C107.893 133.961 106.611 134.5 104.579 134.5V137.5C107.133 137.5 109.318 136.812 110.863 135.197L108.695 133.123ZM104.579 134.5H80.5788V137.5H104.579V134.5ZM145.15 120H143.65V121.5H145.15V120ZM145.15 64V62.5H143.65V64H145.15ZM175.55 66L174.868 67.3361L174.885 67.3444L174.901 67.3523L175.55 66ZM181.87 71.52L180.609 72.3326V72.3326L181.87 71.52ZM181.79 90L180.534 89.1806L180.529 89.1874L181.79 90ZM175.47 95.52L174.821 94.1677L175.47 95.52ZM151.87 97.44V95.94H150.37V97.44H151.87ZM151.87 120V121.5H153.37V120H151.87ZM151.87 91.36H150.37V92.86H151.87V91.36ZM174.35 88.72L175.319 89.8651L175.327 89.8579L175.336 89.8507L174.35 88.72ZM174.35 72.8L173.35 73.9179L173.365 73.9317L173.381 73.9451L174.35 72.8ZM151.87 70.08V68.58H150.37V70.08H151.87ZM146.65 120V64H143.65V120H146.65ZM145.15 65.5H166.59V62.5H145.15V65.5ZM166.59 65.5C169.748 65.5 172.495 66.1252 174.868 67.3361L176.232 64.6639C173.378 63.2081 170.152 62.5 166.59 62.5V65.5ZM174.901 67.3523C177.327 68.5169 179.218 70.1742 180.609 72.3326L183.131 70.7074C181.428 68.0658 179.106 66.0431 176.199 64.6477L174.901 67.3523ZM180.609 72.3326C181.971 74.4464 182.69 77.0578 182.69 80.24H185.69C185.69 76.5955 184.862 73.3936 183.131 70.7074L180.609 72.3326ZM182.69 80.24V81.28H185.69V80.24H182.69ZM182.69 81.28C182.69 84.393 181.952 87.0054 180.534 89.1806L183.046 90.8194C184.828 88.088 185.69 84.887 185.69 81.28H182.69ZM180.529 89.1874C179.138 91.3458 177.247 93.0031 174.821 94.1677L176.119 96.8723C179.026 95.4769 181.348 93.4542 183.051 90.8125L180.529 89.1874ZM174.821 94.1677C172.376 95.3411 169.641 95.94 166.59 95.94V98.94C170.045 98.94 173.23 98.2589 176.119 96.8723L174.821 94.1677ZM166.59 95.94H151.87V98.94H166.59V95.94ZM150.37 97.44V120H153.37V97.44H150.37ZM151.87 118.5H145.15V121.5H151.87V118.5ZM151.87 92.86H165.87V89.86H151.87V92.86ZM165.87 92.86C169.686 92.86 172.893 91.9175 175.319 89.8651L173.381 87.5749C171.647 89.0425 169.201 89.86 165.87 89.86V92.86ZM175.336 89.8507C177.802 87.7008 178.97 84.7214 178.97 81.12H175.97C175.97 84.0252 175.058 86.1126 173.364 87.5893L175.336 89.8507ZM178.97 81.12V80.32H175.97V81.12H178.97ZM178.97 80.32C178.97 76.7198 177.802 73.7557 175.319 71.6549L173.381 73.9451C175.058 75.3643 175.97 77.4136 175.97 80.32H178.97ZM175.35 71.6821C172.968 69.5504 169.741 68.58 165.87 68.58V71.58C169.253 71.58 171.679 72.4229 173.35 73.9179L175.35 71.6821ZM165.87 68.58H151.87V71.58H165.87V68.58ZM150.37 70.08V91.36H153.37V70.08H150.37ZM199.787 118.64L199.06 119.952L199.07 119.958L199.787 118.64ZM192.747 111.68L191.429 112.397L191.437 112.411L191.445 112.424L192.747 111.68ZM192.747 89.28L191.439 88.5457L191.434 88.5545L191.429 88.5633L192.747 89.28ZM199.787 82.24L199.07 80.9222L199.06 80.9277L199.787 82.24ZM220.667 82.24L219.94 83.5524L219.95 83.5577L220.667 82.24ZM227.707 89.28L226.389 89.9967L226.394 90.0055L226.399 90.0143L227.707 89.28ZM227.707 111.68L226.399 110.946L226.395 110.954L227.707 111.68ZM220.667 118.64L219.95 117.322L219.94 117.328L220.667 118.64ZM220.187 111.52L219.094 110.493L219.093 110.493L220.187 111.52ZM220.187 89.44L219.083 90.4556L219.094 90.4671L219.104 90.4783L220.187 89.44ZM200.347 89.44L201.429 90.4783L201.435 90.4729L201.44 90.4674L200.347 89.44ZM200.347 111.52L199.254 112.547L199.259 112.553L199.264 112.558L200.347 111.52ZM210.267 119.62C206.535 119.62 203.294 118.84 200.504 117.322L199.07 119.958C202.359 121.747 206.105 122.62 210.267 122.62V119.62ZM200.513 117.328C197.769 115.808 195.621 113.686 194.049 110.936L191.445 112.424C193.286 115.647 195.831 118.165 199.06 119.952L200.513 117.328ZM194.065 110.963C192.551 108.181 191.767 104.863 191.767 100.96H188.767C188.767 105.27 189.636 109.099 191.429 112.397L194.065 110.963ZM191.767 100.96V99.92H188.767V100.96H191.767ZM191.767 99.92C191.767 96.074 192.55 92.7818 194.065 89.9967L191.429 88.5633C189.637 91.8582 188.767 95.6593 188.767 99.92H191.767ZM194.055 90.0143C195.628 87.2118 197.776 85.0677 200.513 83.5523L199.06 80.9277C195.825 82.7189 193.279 85.2682 191.439 88.5457L194.055 90.0143ZM200.504 83.5577C203.294 82.0399 206.535 81.26 210.267 81.26V78.26C206.105 78.26 202.359 79.1334 199.07 80.9223L200.504 83.5577ZM210.267 81.26C213.999 81.26 217.209 82.0401 219.94 83.5523L221.393 80.9277C218.152 79.1332 214.428 78.26 210.267 78.26V81.26ZM219.95 83.5577C222.736 85.0728 224.874 87.2108 226.389 89.9967L229.025 88.5633C227.233 85.2692 224.678 82.7138 221.384 80.9223L219.95 83.5577ZM226.399 90.0143C227.961 92.7959 228.767 96.0817 228.767 99.92H231.767C231.767 95.6517 230.867 91.8441 229.015 88.5457L226.399 90.0143ZM228.767 99.92V100.96H231.767V99.92H228.767ZM228.767 100.96C228.767 104.855 227.959 108.167 226.399 110.946L229.015 112.414C230.868 109.113 231.767 105.278 231.767 100.96H228.767ZM226.395 110.954C224.881 113.687 222.743 115.803 219.95 117.322L221.384 119.958C224.671 118.17 227.226 115.646 229.019 112.406L226.395 110.954ZM219.94 117.328C217.209 118.84 213.999 119.62 210.267 119.62V122.62C214.428 122.62 218.152 121.747 221.393 119.952L219.94 117.328ZM210.267 116.94C214.768 116.94 218.497 115.511 221.28 112.547L219.093 110.493C216.97 112.755 214.085 113.94 210.267 113.94V116.94ZM221.28 112.547C224.104 109.543 225.447 105.572 225.447 100.8H222.447C222.447 104.988 221.283 108.164 219.094 110.493L221.28 112.547ZM225.447 100.8V100.08H222.447V100.8H225.447ZM225.447 100.08C225.447 95.3097 224.104 91.357 221.269 88.4017L219.104 90.4783C221.283 92.7496 222.447 95.8903 222.447 100.08H225.447ZM221.291 88.4244C218.51 85.4021 214.778 83.94 210.267 83.94V86.94C214.076 86.94 216.957 88.1446 219.083 90.4556L221.291 88.4244ZM210.267 83.94C205.802 83.94 202.08 85.406 199.254 88.4126L201.44 90.4674C203.627 88.1406 206.518 86.94 210.267 86.94V83.94ZM199.264 88.4017C196.43 91.357 195.087 95.3097 195.087 100.08H198.087C198.087 95.8903 199.251 92.7496 201.429 90.4783L199.264 88.4017ZM195.087 100.08V100.8H198.087V100.08H195.087ZM195.087 100.8C195.087 105.572 196.43 109.543 199.254 112.547L201.44 110.493C199.25 108.164 198.087 104.988 198.087 100.8H195.087ZM199.264 112.558C202.093 115.507 205.812 116.94 210.267 116.94V113.94C206.509 113.94 203.614 112.759 201.429 110.482L199.264 112.558ZM241.64 120H240.14V121.5H241.64V120ZM241.64 80.88V79.38H240.14V80.88H241.64ZM247.8 80.88H249.3V79.38H247.8V80.88ZM247.8 85.68H246.3V87.18H247.8V85.68ZM248.92 85.68V87.18H249.93L250.31 86.2446L248.92 85.68ZM252.12 81.92L252.848 83.2312L252.12 81.92ZM262.44 80.72H263.94V79.22H262.44V80.72ZM262.44 86.48V87.98H263.94V86.48H262.44ZM250.52 88.88L251.527 89.9915L251.529 89.9899L250.52 88.88ZM247.96 120V121.5H249.46V120H247.96ZM243.14 120V80.88H240.14V120H243.14ZM241.64 82.38H247.8V79.38H241.64V82.38ZM246.3 80.88V85.68H249.3V80.88H246.3ZM247.8 87.18H248.92V84.18H247.8V87.18ZM250.31 86.2446C250.89 84.8152 251.743 83.8454 252.848 83.2312L251.392 80.6088C249.617 81.5946 248.336 83.1315 247.53 85.1154L250.31 86.2446ZM252.848 83.2312C253.991 82.5965 255.606 82.22 257.8 82.22V79.22C255.3 79.22 253.129 79.6435 251.392 80.6088L252.848 83.2312ZM257.8 82.22H262.44V79.22H257.8V82.22ZM260.94 80.72V86.48H263.94V80.72H260.94ZM262.44 84.98H257.4V87.98H262.44V84.98ZM257.4 84.98C254.275 84.98 251.598 85.8732 249.511 87.7701L251.529 89.9899C252.962 88.6868 254.872 87.98 257.4 87.98V84.98ZM249.513 87.7685C247.376 89.7053 246.46 92.6183 246.46 96.16H249.46C249.46 93.0884 250.251 91.148 251.527 89.9915L249.513 87.7685ZM246.46 96.16V120H249.46V96.16H246.46ZM247.96 118.5H241.64V121.5H247.96V118.5ZM280.996 118.16L279.912 119.197L279.924 119.209L279.936 119.221L280.996 118.16ZM279.236 86.4H280.736V84.9H279.236V86.4ZM267.476 86.4H265.976V87.9H267.476V86.4ZM267.476 80.88V79.38H265.976V80.88H267.476ZM279.236 80.88V82.38H280.736V80.88H279.236ZM279.236 66.96V65.46H277.736V66.96H279.236ZM285.556 66.96H287.056V65.46H285.556V66.96ZM285.556 80.88H284.056V82.38H285.556V80.88ZM298.356 80.88H299.856V79.38H298.356V80.88ZM298.356 86.4V87.9H299.856V86.4H298.356ZM285.556 86.4V84.9H284.056V86.4H285.556ZM296.596 114.56H298.096V113.06H296.596V114.56ZM296.596 120V121.5H298.096V120H296.596ZM286.196 118.5C284.233 118.5 282.927 117.969 282.057 117.099L279.936 119.221C281.519 120.804 283.679 121.5 286.196 121.5V118.5ZM282.08 117.123C281.238 116.243 280.736 114.971 280.736 113.12H277.736C277.736 115.536 278.408 117.624 279.912 119.197L282.08 117.123ZM280.736 113.12V86.4H277.736V113.12H280.736ZM279.236 84.9H267.476V87.9H279.236V84.9ZM268.976 86.4V80.88H265.976V86.4H268.976ZM267.476 82.38H279.236V79.38H267.476V82.38ZM280.736 80.88V66.96H277.736V80.88H280.736ZM279.236 68.46H285.556V65.46H279.236V68.46ZM284.056 66.96V80.88H287.056V66.96H284.056ZM285.556 82.38H298.356V79.38H285.556V82.38ZM296.856 80.88V86.4H299.856V80.88H296.856ZM298.356 84.9H285.556V87.9H298.356V84.9ZM284.056 86.4V112.16H287.056V86.4H284.056ZM284.056 112.16C284.056 113.179 284.302 114.221 285.058 115.003C285.823 115.794 286.859 116.06 287.876 116.06V113.06C287.347 113.06 287.223 112.926 287.215 112.917C287.197 112.899 287.056 112.741 287.056 112.16H284.056ZM287.876 116.06H296.596V113.06H287.876V116.06ZM295.096 114.56V120H298.096V114.56H295.096ZM296.596 118.5H286.196V121.5H296.596V118.5ZM313.851 120H312.351V121.5H313.851V120ZM313.851 86.4H315.351V84.9H313.851V86.4ZM301.851 86.4H300.351V87.9H301.851V86.4ZM301.851 80.88V79.38H300.351V80.88H301.851ZM313.851 80.88V82.38H315.351V80.88H313.851ZM315.611 65.84L314.551 64.7793L314.539 64.7911L314.527 64.8032L315.611 65.84ZM330.651 64H332.151V62.5H330.651V64ZM330.651 69.44V70.94H332.151V69.44H330.651ZM320.171 80.88H318.671V82.38H320.171V80.88ZM332.491 80.88H333.991V79.38H332.491V80.88ZM332.491 86.4V87.9H333.991V86.4H332.491ZM320.171 86.4V84.9H318.671V86.4H320.171ZM320.171 120V121.5H321.671V120H320.171ZM315.351 120V86.4H312.351V120H315.351ZM313.851 84.9H301.851V87.9H313.851V84.9ZM303.351 86.4V80.88H300.351V86.4H303.351ZM301.851 82.38H313.851V79.38H301.851V82.38ZM315.351 80.88V70.88H312.351V80.88H315.351ZM315.351 70.88C315.351 69.0291 315.853 67.7574 316.695 66.8768L314.527 64.8032C313.023 66.376 312.351 68.4642 312.351 70.88H315.351ZM316.672 66.9007C317.542 66.0307 318.848 65.5 320.811 65.5V62.5C318.294 62.5 316.134 63.196 314.551 64.7793L316.672 66.9007ZM320.811 65.5H330.651V62.5H320.811V65.5ZM329.151 64V69.44H332.151V64H329.151ZM330.651 67.94H322.571V70.94H330.651V67.94ZM322.571 67.94C321.54 67.94 320.491 68.1988 319.711 68.9793C318.93 69.7599 318.671 70.8088 318.671 71.84H321.671C321.671 71.2712 321.812 71.1201 321.832 71.1007C321.851 71.0812 322.002 70.94 322.571 70.94V67.94ZM318.671 71.84V80.88H321.671V71.84H318.671ZM320.171 82.38H332.491V79.38H320.171V82.38ZM330.991 80.88V86.4H333.991V80.88H330.991ZM332.491 84.9H320.171V87.9H332.491V84.9ZM318.671 86.4V120H321.671V86.4H318.671ZM320.171 118.5H313.851V121.5H320.171V118.5ZM347.209 118.64L346.482 119.952L346.492 119.958L347.209 118.64ZM340.169 111.68L338.851 112.397L338.859 112.411L338.866 112.424L340.169 111.68ZM340.169 89.28L338.861 88.5457L338.856 88.5545L338.851 88.5633L340.169 89.28ZM347.209 82.24L346.492 80.9222L346.482 80.9277L347.209 82.24ZM368.089 82.24L367.362 83.5524L367.372 83.5577L368.089 82.24ZM375.129 89.28L373.811 89.9967L373.816 90.0055L373.821 90.0143L375.129 89.28ZM375.129 111.68L373.821 110.946L373.816 110.954L375.129 111.68ZM368.089 118.64L367.372 117.322L367.362 117.328L368.089 118.64ZM367.609 111.52L366.516 110.493L366.515 110.493L367.609 111.52ZM367.609 89.44L366.505 90.4556L366.515 90.4671L366.526 90.4783L367.609 89.44ZM347.769 89.44L348.851 90.4783L348.857 90.4729L348.862 90.4674L347.769 89.44ZM347.769 111.52L346.676 112.547L346.681 112.553L346.686 112.558L347.769 111.52ZM357.689 119.62C353.957 119.62 350.716 118.84 347.925 117.322L346.492 119.958C349.781 121.747 353.527 122.62 357.689 122.62V119.62ZM347.935 117.328C345.191 115.808 343.043 113.686 341.471 110.936L338.866 112.424C340.708 115.647 343.253 118.165 346.482 119.952L347.935 117.328ZM341.486 110.963C339.973 108.181 339.189 104.863 339.189 100.96H336.189C336.189 105.27 337.058 109.099 338.851 112.397L341.486 110.963ZM339.189 100.96V99.92H336.189V100.96H339.189ZM339.189 99.92C339.189 96.074 339.972 92.7818 341.486 89.9967L338.851 88.5633C337.059 91.8582 336.189 95.6593 336.189 99.92H339.189ZM341.477 90.0143C343.05 87.2118 345.198 85.0677 347.935 83.5523L346.482 80.9277C343.246 82.7189 340.701 85.2682 338.861 88.5457L341.477 90.0143ZM347.925 83.5577C350.716 82.0399 353.957 81.26 357.689 81.26V78.26C353.527 78.26 349.781 79.1334 346.492 80.9223L347.925 83.5577ZM357.689 81.26C361.421 81.26 364.631 82.0401 367.362 83.5523L368.815 80.9277C365.574 79.1332 361.85 78.26 357.689 78.26V81.26ZM367.372 83.5577C370.158 85.0728 372.296 87.2108 373.811 89.9967L376.446 88.5633C374.655 85.2692 372.1 82.7138 368.805 80.9223L367.372 83.5577ZM373.821 90.0143C375.382 92.7959 376.189 96.0817 376.189 99.92H379.189C379.189 95.6517 378.288 91.8441 376.437 88.5457L373.821 90.0143ZM376.189 99.92V100.96H379.189V99.92H376.189ZM376.189 100.96C376.189 104.855 375.381 108.167 373.821 110.946L376.437 112.414C378.29 109.113 379.189 105.278 379.189 100.96H376.189ZM373.816 110.954C372.303 113.687 370.165 115.803 367.372 117.322L368.805 119.958C372.093 118.17 374.648 115.646 376.441 112.406L373.816 110.954ZM367.362 117.328C364.631 118.84 361.421 119.62 357.689 119.62V122.62C361.85 122.62 365.574 121.747 368.815 119.952L367.362 117.328ZM357.689 116.94C362.19 116.94 365.919 115.511 368.702 112.547L366.515 110.493C364.392 112.755 361.507 113.94 357.689 113.94V116.94ZM368.702 112.547C371.526 109.543 372.869 105.572 372.869 100.8H369.869C369.869 104.988 368.705 108.164 366.516 110.493L368.702 112.547ZM372.869 100.8V100.08H369.869V100.8H372.869ZM372.869 100.08C372.869 95.3097 371.526 91.357 368.691 88.4017L366.526 90.4783C368.705 92.7496 369.869 95.8903 369.869 100.08H372.869ZM368.713 88.4244C365.932 85.4021 362.2 83.94 357.689 83.94V86.94C361.498 86.94 364.379 88.1446 366.505 90.4556L368.713 88.4244ZM357.689 83.94C353.224 83.94 349.502 85.406 346.676 88.4126L348.862 90.4674C351.049 88.1406 353.94 86.94 357.689 86.94V83.94ZM346.686 88.4017C343.852 91.357 342.509 95.3097 342.509 100.08H345.509C345.509 95.8903 346.673 92.7496 348.851 90.4783L346.686 88.4017ZM342.509 100.08V100.8H345.509V100.08H342.509ZM342.509 100.8C342.509 105.572 343.852 109.543 346.676 112.547L348.862 110.493C346.672 108.164 345.509 104.988 345.509 100.8H342.509ZM346.686 112.558C349.515 115.507 353.233 116.94 357.689 116.94V113.94C353.931 113.94 351.036 112.759 348.851 110.482L346.686 112.558ZM389.062 120H387.562V121.5H389.062V120ZM389.062 64V62.5H387.562V64H389.062ZM395.382 64H396.882V62.5H395.382V64ZM395.382 120V121.5H396.882V120H395.382ZM390.562 120V64H387.562V120H390.562ZM389.062 65.5H395.382V62.5H389.062V65.5ZM393.882 64V120H396.882V64H393.882ZM395.382 118.5H389.062V121.5H395.382V118.5ZM408.671 120H407.171V121.5H408.671V120ZM408.671 80.88V79.38H407.171V80.88H408.671ZM414.991 80.88H416.491V79.38H414.991V80.88ZM414.991 120V121.5H416.491V120H414.991ZM408.351 73.44L407.291 74.5007L407.306 74.5158L407.321 74.5305L408.351 73.44ZM408.351 66.48L407.321 65.3895L407.306 65.4042L407.291 65.4193L408.351 66.48ZM410.171 120V80.88H407.171V120H410.171ZM408.671 82.38H414.991V79.38H408.671V82.38ZM413.491 80.88V120H416.491V80.88H413.491ZM414.991 118.5H408.671V121.5H414.991V118.5ZM411.871 73.3C410.846 73.3 410.048 72.979 409.381 72.3495L407.321 74.5305C408.575 75.7144 410.123 76.3 411.871 76.3V73.3ZM409.412 72.3793C408.811 71.7783 408.491 71.0246 408.491 70H405.491C405.491 71.7487 406.078 73.2884 407.291 74.5007L409.412 72.3793ZM408.491 70C408.491 68.9044 408.822 68.1303 409.412 67.5407L407.291 65.4193C406.067 66.643 405.491 68.2156 405.491 70H408.491ZM409.381 67.5705C410.048 66.941 410.846 66.62 411.871 66.62V63.62C410.123 63.62 408.575 64.2056 407.321 65.3895L409.381 67.5705ZM411.871 66.62C412.896 66.62 413.65 66.9396 414.251 67.5407L416.372 65.4193C415.16 64.207 413.62 63.62 411.871 63.62V66.62ZM414.251 67.5407C414.84 68.1303 415.171 68.9044 415.171 70H418.171C418.171 68.2156 417.596 66.643 416.372 65.4193L414.251 67.5407ZM415.171 70C415.171 71.0246 414.852 71.7783 414.251 72.3793L416.372 74.5007C417.584 73.2884 418.171 71.7487 418.171 70H415.171ZM414.251 72.3793C413.65 72.9804 412.896 73.3 411.871 73.3V76.3C413.62 76.3 415.16 75.713 416.372 74.5007L414.251 72.3793ZM435.881 118.64L435.154 119.952L435.164 119.958L435.881 118.64ZM428.841 111.68L427.523 112.397L427.53 112.411L427.538 112.424L428.841 111.68ZM428.841 89.28L427.533 88.5457L427.528 88.5545L427.523 88.5633L428.841 89.28ZM435.881 82.24L435.164 80.9222L435.154 80.9277L435.881 82.24ZM456.761 82.24L456.034 83.5524L456.044 83.5577L456.761 82.24ZM463.801 89.28L462.483 89.9967L462.488 90.0055L462.493 90.0143L463.801 89.28ZM463.801 111.68L462.493 110.946L462.488 110.954L463.801 111.68ZM456.761 118.64L456.044 117.322L456.034 117.328L456.761 118.64ZM456.281 111.52L455.188 110.493L455.187 110.493L456.281 111.52ZM456.281 89.44L455.177 90.4556L455.187 90.4671L455.198 90.4783L456.281 89.44ZM436.441 89.44L437.523 90.4783L437.528 90.4729L437.534 90.4674L436.441 89.44ZM436.441 111.52L435.348 112.547L435.353 112.553L435.358 112.558L436.441 111.52ZM446.361 119.62C442.629 119.62 439.388 118.84 436.597 117.322L435.164 119.958C438.453 121.747 442.199 122.62 446.361 122.62V119.62ZM436.607 117.328C433.863 115.808 431.714 113.686 430.143 110.936L427.538 112.424C429.38 115.647 431.925 118.165 435.154 119.952L436.607 117.328ZM430.158 110.963C428.645 108.181 427.861 104.863 427.861 100.96H424.861C424.861 105.27 425.729 109.099 427.523 112.397L430.158 110.963ZM427.861 100.96V99.92H424.861V100.96H427.861ZM427.861 99.92C427.861 96.074 428.644 92.7818 430.158 89.9967L427.523 88.5633C425.731 91.8582 424.861 95.6593 424.861 99.92H427.861ZM430.149 90.0143C431.722 87.2118 433.87 85.0677 436.607 83.5523L435.154 80.9277C431.918 82.7189 429.373 85.2682 427.533 88.5457L430.149 90.0143ZM436.597 83.5577C439.388 82.0399 442.629 81.26 446.361 81.26V78.26C442.199 78.26 438.453 79.1334 435.164 80.9223L436.597 83.5577ZM446.361 81.26C450.093 81.26 453.302 82.0401 456.034 83.5523L457.487 80.9277C454.246 79.1332 450.521 78.26 446.361 78.26V81.26ZM456.044 83.5577C458.83 85.0728 460.968 87.2108 462.483 89.9967L465.118 88.5633C463.327 85.2692 460.771 82.7138 457.477 80.9223L456.044 83.5577ZM462.493 90.0143C464.054 92.7959 464.861 96.0817 464.861 99.92H467.861C467.861 95.6517 466.96 91.8441 465.109 88.5457L462.493 90.0143ZM464.861 99.92V100.96H467.861V99.92H464.861ZM464.861 100.96C464.861 104.855 464.053 108.167 462.493 110.946L465.109 112.414C466.962 109.113 467.861 105.278 467.861 100.96H464.861ZM462.488 110.954C460.975 113.687 458.837 115.803 456.044 117.322L457.477 119.958C460.764 118.17 463.319 115.646 465.113 112.406L462.488 110.954ZM456.034 117.328C453.302 118.84 450.093 119.62 446.361 119.62V122.62C450.521 122.62 454.246 121.747 457.487 119.952L456.034 117.328ZM446.361 116.94C450.862 116.94 454.591 115.511 457.374 112.547L455.187 110.493C453.063 112.755 450.179 113.94 446.361 113.94V116.94ZM457.374 112.547C460.198 109.543 461.541 105.572 461.541 100.8H458.541C458.541 104.988 457.377 108.164 455.188 110.493L457.374 112.547ZM461.541 100.8V100.08H458.541V100.8H461.541ZM461.541 100.08C461.541 95.3097 460.198 91.357 457.363 88.4017L455.198 90.4783C457.377 92.7496 458.541 95.8903 458.541 100.08H461.541ZM457.385 88.4244C454.604 85.4021 450.872 83.94 446.361 83.94V86.94C450.169 86.94 453.051 88.1446 455.177 90.4556L457.385 88.4244ZM446.361 83.94C441.896 83.94 438.174 85.406 435.348 88.4126L437.534 90.4674C439.721 88.1406 442.612 86.94 446.361 86.94V83.94ZM435.358 88.4017C432.523 91.357 431.181 95.3097 431.181 100.08H434.181C434.181 95.8903 435.345 92.7496 437.523 90.4783L435.358 88.4017ZM431.181 100.08V100.8H434.181V100.08H431.181ZM431.181 100.8C431.181 105.572 432.524 109.543 435.348 112.547L437.534 110.493C435.344 108.164 434.181 104.988 434.181 100.8H431.181ZM435.358 112.558C438.187 115.507 441.905 116.94 446.361 116.94V113.94C442.603 113.94 439.708 112.759 437.523 110.482L435.358 112.558Z" fill="black"/>
<path fill-rule="evenodd" clip-rule="evenodd" d="M500.698 143.907C430.182 136.058 358.473 140.399 287.78 138.986C241.034 138.04 194.284 135.763 147.572 135C146.172 134.98 145.02 136.322 145 138.01C144.982 139.698 146.103 141.08 147.503 141.101C194.21 141.863 240.954 144.141 287.695 145.087C358.262 146.5 429.835 142.148 500.224 149.987C501.619 150.14 502.854 148.909 502.989 147.232C503.116 145.554 502.085 144.07 500.698 143.907Z" fill="black"/>
<defs>
<filter id="filter0_d_1_1119" x="503" y="0" width="160.912" height="172.359" filterUnits="userSpaceOnUse" color-interpolation-filters="sRGB">
<feFlood flood-opacity="0" result="BackgroundImageFix"/>
<feColorMatrix in="SourceAlpha" type="matrix" values="0 0 0 0 0 0 0 0 0 0 0 0 0 0 0 0 0 0 127 0" result="hardAlpha"/>
<feOffset dy="12.5815"/>
<feComposite in2="hardAlpha" operator="out"/>
<feColorMatrix type="matrix" values="0 0 0 0 0 0 0 0 0 0 0 0 0 0 0 0 0 0 0.25 0"/>
<feBlend mode="normal" in2="BackgroundImageFix" result="effect1_dropShadow_1_1119"/>
<feBlend mode="normal" in="SourceGraphic" in2="effect1_dropShadow_1_1119" result="shape"/>
</filter>
<filter id="filter1_d_1_1119" x="535.196" y="35.8022" width="112.156" height="104.364" filterUnits="userSpaceOnUse" color-interpolation-filters="sRGB">
<feFlood flood-opacity="0" result="BackgroundImageFix"/>
<feColorMatrix in="SourceAlpha" type="matrix" values="0 0 0 0 0 0 0 0 0 0 0 0 0 0 0 0 0 0 127 0" result="hardAlpha"/>
<feOffset dy="3.14537"/>
<feComposite in2="hardAlpha" operator="out"/>
<feColorMatrix type="matrix" values="0 0 0 0 0 0 0 0 0 0 0 0 0 0 0 0 0 0 0.25 0"/>
<feBlend mode="normal" in2="BackgroundImageFix" result="effect1_dropShadow_1_1119"/>
<feBlend mode="normal" in="SourceGraphic" in2="effect1_dropShadow_1_1119" result="shape"/>
</filter>
<filter id="filter2_d_1_1119" x="569.348" y="67.5861" width="41.1816" height="38.3473" filterUnits="userSpaceOnUse" color-interpolation-filters="sRGB">
<feFlood flood-opacity="0" result="BackgroundImageFix"/>
<feColorMatrix in="SourceAlpha" type="matrix" values="0 0 0 0 0 0 0 0 0 0 0 0 0 0 0 0 0 0 127 0" result="hardAlpha"/>
<feOffset dy="3.14537"/>
<feComposite in2="hardAlpha" operator="out"/>
<feColorMatrix type="matrix" values="0 0 0 0 0 0 0 0 0 0 0 0 0 0 0 0 0 0 0.25 0"/>
<feBlend mode="normal" in2="BackgroundImageFix" result="effect1_dropShadow_1_1119"/>
<feBlend mode="normal" in="SourceGraphic" in2="effect1_dropShadow_1_1119" result="shape"/>
</filter>
</defs>
</svg>
