<svg width="151" height="137" viewBox="0 0 151 137" fill="none" xmlns="http://www.w3.org/2000/svg">
<g filter="url(#filter0_d_206_3)">
<path d="M64.5679 23.4684V46.0586L52.7817 40.1655C46.2993 37.0226 40.2098 34.2724 39.0311 34.2724C34.5131 34.2724 37.6561 40.362 46.1029 47.8266C52.1924 53.1304 54.3532 56.0769 52.5853 56.6662C51.0138 57.2555 39.424 60.3985 26.4592 63.5415C2.29751 69.4346 -2.61341 71.9883 1.11889 75.7206C2.49394 77.0956 11.9229 76.5063 32.9416 73.3633C49.4423 71.0061 63.3893 69.631 63.9786 70.2203C64.5679 71.0061 61.2285 77.8814 56.7104 85.7388C51.996 93.5963 48.0672 100.668 47.6744 101.257C47.2815 102.043 48.2637 103.615 49.6387 104.793C51.996 106.758 53.9603 105.775 60.2463 100.275C64.5679 96.3464 68.8895 93.2034 69.8717 93.2034C70.8539 93.2034 72.8182 99.0965 74.3897 106.365C77.7292 123.258 80.0864 128.562 84.408 128.562C89.7118 128.562 90.694 122.472 89.1225 99.8823C88.3367 88.4889 88.3367 79.4529 89.3189 79.4529C90.3011 79.4529 98.1586 82.5958 106.802 86.3281C123.892 93.7927 129.392 94.7749 129.392 90.4533C129.392 86.5246 126.249 83.7745 111.123 73.3633C103.855 68.6488 97.9621 64.1308 97.9621 63.5415C97.9621 62.9522 107.98 59.6128 120.159 56.0769C141.964 49.7909 151 45.6658 151 42.1299C151 39.1834 138.624 39.7727 118.981 43.3085C109.552 45.0765 101.105 46.0586 100.516 45.2729C99.9265 44.6836 101.302 39.5762 103.659 34.076C112.498 12.6644 106.998 10.7001 93.2476 30.5401C88.1403 38.2012 83.0329 43.7014 82.2472 42.7192C81.4614 41.9335 79.3007 34.076 77.3363 25.4328C73.4075 6.96778 70.8539 0.878235 67.1216 0.878235C65.1572 0.878235 64.5679 5.98558 64.5679 23.4684Z" fill="#FF6258"/>
<path d="M84.4081 127.062C85.4116 127.062 86.0136 126.793 86.4774 126.266C87.0139 125.657 87.5237 124.523 87.8632 122.451C88.4997 118.565 88.4264 112.176 87.7655 102.06L87.6259 99.9868C87.2316 94.2696 87.0326 89.1201 87.0575 85.3853C87.0699 83.5267 87.1378 81.9721 87.2743 80.8599C87.3409 80.3176 87.433 79.7961 87.577 79.3765C87.6464 79.1746 87.7617 78.8934 87.9628 78.6353C88.1655 78.3752 88.6129 77.9526 89.3192 77.9526C89.6856 77.9527 90.1148 78.0683 90.4101 78.1528C90.7753 78.2574 91.2271 78.4057 91.744 78.5864C92.7815 78.949 94.1477 79.467 95.7392 80.0962C98.129 81.041 101.056 82.2474 104.196 83.5806L107.396 84.9507L107.402 84.9536C115.971 88.6963 121.462 90.7323 124.774 91.3345C126.472 91.643 127.267 91.5068 127.584 91.3452C127.688 91.2919 127.892 91.1987 127.892 90.4536C127.892 89.7023 127.749 89.0436 127.348 88.3081C126.926 87.5359 126.19 86.6261 124.91 85.4399C122.33 83.0493 117.863 79.824 110.278 74.603C106.63 72.2359 103.322 69.9154 100.915 68.104C99.7113 67.1982 98.7162 66.4061 98.0116 65.7925C97.6635 65.4893 97.3585 65.2061 97.1298 64.9595C97.0181 64.839 96.8924 64.6933 96.786 64.5356C96.7327 64.4565 96.6647 64.3451 96.6054 64.2095C96.5656 64.1187 96.5043 63.9621 96.4765 63.7593L96.4618 63.5415L96.4735 63.3511C96.5255 62.926 96.7391 62.6399 96.828 62.5308C96.9537 62.3765 97.0874 62.2672 97.1728 62.2026C97.3489 62.0695 97.5497 61.9565 97.7245 61.8657C98.0889 61.6765 98.5829 61.4619 99.161 61.231C100.33 60.7641 101.994 60.1699 104.017 59.4917C107.562 58.3026 112.27 56.8339 117.479 55.2983L119.741 54.6362L119.744 54.6353C130.637 51.495 138.259 48.9168 143.138 46.7056C145.585 45.5966 147.255 44.6183 148.292 43.7612C149.085 43.1053 149.366 42.6395 149.458 42.3579C149.278 42.2668 148.964 42.1478 148.455 42.0425C147.171 41.7766 145.157 41.6784 142.416 41.7876C137.31 41.991 130.025 42.8977 121.062 44.4634L119.246 44.7847C114.511 45.6723 110.007 46.3664 106.597 46.7397C104.896 46.9259 103.433 47.0365 102.337 47.0464C101.796 47.0513 101.292 47.0315 100.874 46.9702C100.667 46.9398 100.429 46.8921 100.198 46.8071C100.022 46.7422 99.6867 46.597 99.4061 46.2808C99.168 46.0221 99.0518 45.7408 98.9931 45.5483C98.9274 45.3332 98.9005 45.1242 98.8886 44.9507C98.8649 44.605 98.8912 44.2268 98.9384 43.8579C99.0342 43.1091 99.2459 42.1662 99.537 41.1157C100.122 39.0068 101.076 36.2983 102.272 33.5044C104.467 28.1888 105.733 24.1662 106.218 21.438C106.463 20.06 106.487 19.1247 106.395 18.5581C106.376 18.4443 106.353 18.3602 106.335 18.2983C106.207 18.332 105.989 18.4095 105.657 18.5981C104.979 18.9841 104.082 19.6883 102.97 20.7817C100.893 22.8225 98.2493 26.0357 95.1142 30.4878L94.4804 31.395C91.901 35.2619 89.3075 38.607 87.2353 40.8813C86.2068 42.0101 85.2585 42.9289 84.4735 43.5122C84.0966 43.7923 83.653 44.075 83.1894 44.2222C82.7731 44.3542 81.8282 44.5063 81.1435 43.7349C80.8507 43.4221 80.649 43.0004 80.5233 42.7212C80.3602 42.3586 80.1873 41.9082 80.0087 41.3979C79.65 40.3732 79.2356 39.0126 78.7899 37.4282C77.8972 34.254 76.8599 30.1032 75.8739 25.7651L75.871 25.7554L75.869 25.7446C73.9037 16.5075 72.3066 10.4949 70.7704 6.80811C70.0014 4.96239 69.2957 3.82152 68.6581 3.15771C68.1588 2.638 67.7356 2.44371 67.3437 2.39404C67.322 2.43469 67.2961 2.48715 67.2665 2.5542C67.0314 3.08755 66.7919 4.08291 66.5985 5.78662C66.2167 9.15151 66.0683 14.7159 66.0683 23.4683V48.4858L63.8974 47.3999L52.1269 41.5151C48.8936 39.9475 45.7713 38.4842 43.3183 37.4155C42.0896 36.8803 41.0461 36.4517 40.2489 36.1597C39.8494 36.0133 39.5307 35.9078 39.2919 35.8413C39.1128 35.7914 39.0261 35.7778 39.0067 35.7739C38.7147 35.776 38.549 35.8129 38.4687 35.8403C38.4579 36.0237 38.5128 36.5518 39.036 37.5581C40.1849 39.7675 42.9174 43.0102 47.0956 46.7026L47.0946 46.7036C50.1433 49.3594 52.3145 51.511 53.4999 53.1274C54.0636 53.8961 54.5695 54.7574 54.6649 55.6167C54.7182 56.0961 54.6521 56.6567 54.3124 57.1665C53.9913 57.6482 53.5344 57.9208 53.1112 58.0708C53.1004 58.0749 53.0896 58.0783 53.078 58.0825C53.0718 58.0846 53.0657 58.0873 53.0595 58.0894C52.1083 58.4343 48.7645 59.3783 44.1796 60.5962C39.455 61.8512 33.3057 63.4254 26.8124 64.9995C14.6936 67.9554 7.59356 70.0323 3.98528 71.7896C3.09808 72.2216 2.4843 72.6063 2.07805 72.9399C1.66781 73.2769 1.54691 73.4982 1.51458 73.5864C1.49867 73.6299 1.48368 73.6757 1.53704 73.8091C1.6044 73.9772 1.77122 74.2406 2.12786 74.606C2.16459 74.6218 2.24543 74.6526 2.3886 74.689C2.69411 74.7665 3.1557 74.836 3.81048 74.8774C5.11657 74.9601 7.00284 74.9221 9.55657 74.7397C14.0162 74.4212 20.3665 73.6731 28.9188 72.439L32.7196 71.8794L32.7294 71.8784C40.9953 70.6976 48.6289 69.7621 54.2772 69.1948C57.0982 68.9115 59.4412 68.718 61.1259 68.6333C61.9635 68.5912 62.6682 68.5743 63.1981 68.5903C63.4583 68.5982 63.7176 68.6151 63.9462 68.6509C64.0591 68.6686 64.2043 68.6966 64.3554 68.7466C64.4698 68.7844 64.7703 68.891 65.039 69.1597L65.1142 69.2349L65.1786 69.3208C65.4625 69.6996 65.5237 70.104 65.5399 70.3306C65.5578 70.5809 65.5344 70.822 65.5028 71.0229C65.4393 71.4274 65.3071 71.886 65.1454 72.3579C64.8176 73.3145 64.2867 74.5525 63.6151 75.9702C62.2662 78.8178 60.281 82.5384 58.0106 86.4868L57.997 86.5103L56.2763 89.4009C54.6027 92.2326 53.0867 94.8553 51.8729 96.9702C50.5613 99.2557 49.5568 101.023 49.1181 101.763C49.1481 101.849 49.2021 101.971 49.2929 102.128C49.5596 102.591 50.0268 103.15 50.6103 103.651C51.072 104.034 51.3902 104.168 51.6435 104.208C51.8921 104.248 52.2584 104.226 52.8681 103.959C54.0229 103.454 55.6117 102.281 58.1239 100.129L59.2587 99.146C61.445 97.1597 63.6381 95.3647 65.4247 94.0562C66.3181 93.4018 67.1322 92.853 67.8056 92.4604C68.1406 92.2651 68.467 92.0928 68.7675 91.9653C69.0212 91.8577 69.4307 91.7036 69.872 91.7036C70.7048 91.7038 71.2324 92.2736 71.4208 92.4927C71.6805 92.7946 71.9058 93.1696 72.1015 93.5454C72.5001 94.311 72.9157 95.3579 73.33 96.5757C74.1643 99.0283 75.0619 102.377 75.8554 106.047L75.8583 106.061L75.8612 106.074C77.5332 114.532 78.9309 119.922 80.3983 123.183C81.1283 124.805 81.8221 125.775 82.4696 126.334C83.0712 126.854 83.6787 127.062 84.4081 127.062Z" stroke="black" stroke-width="3"/>
</g>
<defs>
<filter id="filter0_d_206_3" x="-0.000244141" y="0.776001" width="151.284" height="135.551" filterUnits="userSpaceOnUse" color-interpolation-filters="sRGB">
<feFlood flood-opacity="0" result="BackgroundImageFix"/>
<feColorMatrix in="SourceAlpha" type="matrix" values="0 0 0 0 0 0 0 0 0 0 0 0 0 0 0 0 0 0 127 0" result="hardAlpha"/>
<feOffset dy="7.76457"/>
<feComposite in2="hardAlpha" operator="out"/>
<feColorMatrix type="matrix" values="0 0 0 0 0.745098 0 0 0 0 0.74902 0 0 0 0 0.705882 0 0 0 1 0"/>
<feBlend mode="normal" in2="BackgroundImageFix" result="effect1_dropShadow_206_3"/>
<feBlend mode="normal" in="SourceGraphic" in2="effect1_dropShadow_206_3" result="shape"/>
</filter>
</defs>
</svg>
